<?xml version="1.0" encoding="utf-8"?>
<!-- Generator: Adobe Illustrator 28.2.0, SVG Export Plug-In . SVG Version: 6.00 Build 0)  -->
<svg version="1.1" id="Layer_1" xmlns="http://www.w3.org/2000/svg" xmlns:xlink="http://www.w3.org/1999/xlink" x="0px" y="0px"
	 viewBox="0 0 1920 1080" style="enable-background:new 0 0 1920 1080;" xml:space="preserve">
<style type="text/css">
	.st0{fill:#FFFFFF;}
	.st1{fill:url(#SVGID_1_);}
	.st2{fill:#E92728;}
	.st3{fill:#D8A729;}
	.st4{fill:none;stroke:#000000;stroke-width:3.6867;stroke-miterlimit:10;}
	.st5{fill:none;stroke:#000000;stroke-width:0.9217;stroke-miterlimit:10;}
	.st6{fill:#009849;stroke:#000000;stroke-width:0.9217;stroke-miterlimit:10;}
	.st7{fill:#007F40;stroke:#000000;stroke-width:0.9217;stroke-miterlimit:10;}
	.st8{fill:none;}
</style>
<g>
	<g>
		<circle class="st0" cx="956.03" cy="545" r="522"/>
	</g>
	<linearGradient id="SVGID_1_" gradientUnits="userSpaceOnUse" x1="612.8271" y1="482.0674" x2="1287.7323" y2="482.0674">
		<stop  offset="0" style="stop-color:#DAA92E"/>
		<stop  offset="0.1552" style="stop-color:#DBAB33"/>
		<stop  offset="0.3285" style="stop-color:#DDB040"/>
		<stop  offset="0.5106" style="stop-color:#E1B956"/>
		<stop  offset="0.6987" style="stop-color:#E6C676"/>
		<stop  offset="0.8896" style="stop-color:#EDD69D"/>
		<stop  offset="1" style="stop-color:#F2E1B8"/>
	</linearGradient>
	<path class="st1" d="M1285.68,596.79c-2.34-19.88-16.31-44.71-24.18-57.42l-1.98-154.52c-2.49-4.73-5.11-9.39-7.82-13.98
		c-29.76-50.36-72.04-92.49-122.5-122.1c-2.74-1.61-5.51-3.18-8.31-4.71l14.66,35.18l-104.75,58.35
		c-26.58-7.3-99.42-27.38-128.87-36.09c-4.29-7.88-14.94-27.2-35.13-62.82l10-5.29l58.49-30.97c-20.61,1.23-40.73,4.31-60.22,9.04
		c-20.09,4.87-39.47,11.5-58.02,19.75c-22.12,9.83-43.01,21.93-62.38,36.02L820,252.71l34.86-7.74l36.1,59.65
		c-11.13,17.48-47.44,73.65-80.5,114.86l-62.41,17.83l-68.61,12.86c-11.56-15.23-22.59-43-29.07-61.12
		c-1.07,2.06-2.1,4.13-3.11,6.22c-22.07,45.27-34.43,96.09-34.43,149.73c0,22.74,2.23,44.99,6.47,66.49l29-3.82l104.5,127.55
		l6.77,17.76l174.26-13.17c-20.45-15.63-42.64-36.53-53.08-46.64l1.45-1.07l25.33-158.96l70.68-30.07l62.19-16.29l112.42,100.46
		l-23.7,124.44l-103.01,41.3l34.3,1.63l73.56-32.84l73.79,39.94l2.27-2.16l72.98-110.25l4.29-6.49c0,0,0.3-3.38,0.39-9.47
		C1287.82,625.35,1287.55,612.65,1285.68,596.79z M868.79,688.88l-69.77,19.71l-43.63,8.18l-98.99-117.72
		c2.82-32.01,19.88-109.6,25.64-135.25l66.85-12.87l59.61-18.07c15.81,18.79,68.55,81.14,87.41,98.88L868.79,688.88z
		 M1159.31,577.85l-112.48-102.5l-5.87-129.4l103.4-56.51c15.82,12.13,57.7,44.98,101.96,86.01l4.32,158.2L1159.31,577.85z"/>
	<g>
		<path d="M956.03,29.45c69.6,0,137.12,13.63,200.67,40.51c61.39,25.97,116.53,63.14,163.88,110.49s84.52,102.48,110.49,163.88
			c26.88,63.56,40.51,131.07,40.51,200.67s-13.63,137.12-40.51,200.67c-25.97,61.39-63.14,116.53-110.49,163.88
			c-47.35,47.35-102.48,84.52-163.88,110.49c-63.56,26.88-131.07,40.51-200.67,40.51s-137.12-13.63-200.67-40.51
			c-61.39-25.97-116.53-63.14-163.88-110.49C544.14,862.2,506.96,807.06,481,745.67C454.11,682.12,440.48,614.6,440.48,545
			S454.11,407.88,481,344.33c25.97-61.39,63.14-116.53,110.49-163.88c47.35-47.35,102.48-84.52,163.88-110.49
			C818.91,43.08,886.43,29.45,956.03,29.45 M956.03,23c-288.29,0-522,233.71-522,522s233.71,522,522,522s522-233.71,522-522
			S1244.32,23,956.03,23L956.03,23z"/>
	</g>
	<path class="st2" d="M956.03,142.83c54.33,0,106.99,10.62,156.51,31.57c47.88,20.25,90.9,49.26,127.86,86.23
		s65.98,79.99,86.23,127.86c20.95,49.52,31.57,102.18,31.57,156.51c0,54.34-10.62,106.99-31.57,156.51
		c-20.25,47.88-49.26,90.9-86.23,127.86s-79.98,65.98-127.86,86.23c-49.52,20.95-102.18,31.57-156.51,31.57
		c-54.33,0-106.99-10.62-156.51-31.57c-47.88-20.25-90.9-49.26-127.86-86.23c-36.97-36.97-65.98-79.98-86.23-127.86
		c-20.94-49.52-31.57-102.18-31.57-156.51c0-54.33,10.62-106.99,31.57-156.51c20.25-47.88,49.26-90.9,86.23-127.86
		c36.97-36.97,79.99-65.98,127.86-86.23C849.04,153.45,901.7,142.83,956.03,142.83L956.03,142.83z M956.03,46.84
		c-275.13,0-498.16,223.03-498.16,498.16c0,275.13,223.03,498.16,498.16,498.16c275.13,0,498.16-223.03,498.16-498.16
		C1454.19,269.87,1231.16,46.84,956.03,46.84L956.03,46.84z"/>
	<path class="st2" d="M956.03,140.18c54.69,0,107.7,10.69,157.55,31.77c48.19,20.38,91.5,49.59,128.71,86.8s66.41,80.51,86.8,128.71
		c21.08,49.85,31.77,102.85,31.77,157.55c0,54.69-10.69,107.7-31.77,157.55c-20.38,48.19-49.59,91.5-86.8,128.71
		s-80.51,66.41-128.71,86.8c-49.85,21.08-102.85,31.77-157.55,31.77c-54.69,0-107.7-10.69-157.55-31.77
		c-48.19-20.38-91.5-49.59-128.71-86.8c-37.21-37.21-66.41-80.51-86.8-128.71C561.9,652.7,551.21,599.69,551.21,545
		c0-54.69,10.69-107.7,31.77-157.55c20.38-48.19,49.59-91.5,86.8-128.71c37.21-37.21,80.51-66.41,128.71-86.8
		C848.33,150.87,901.34,140.18,956.03,140.18L956.03,140.18z M956.03,43.55c-276.94,0-501.45,224.51-501.45,501.45
		c0,276.94,224.51,501.45,501.45,501.45c276.94,0,501.45-224.51,501.45-501.45C1457.48,268.06,1232.97,43.55,956.03,43.55
		L956.03,43.55z"/>
	<path class="st3" d="M1228.07,272.96c-72.68-72.66-169.28-112.68-272.04-112.68c-47.9,0-94.48,8.7-137.89,25.35
		c-5.78,2.2-11.49,4.55-17.15,7.06c-43.09,18.97-82.71,45.98-116.99,80.27C611.33,345.62,571.31,442.23,571.31,545
		s40.02,199.36,112.68,272.04c72.66,72.66,169.28,112.68,272.04,112.68s199.36-40.02,272.04-112.68
		c72.66-72.68,112.68-169.28,112.68-272.04S1300.73,345.62,1228.07,272.96z M956.03,888.21c-166.34,0-305.41-118.93-336.64-276.24
		c-4.32-21.66-6.57-44.05-6.57-66.96c0-53.64,12.36-104.46,34.42-149.74c35.38-72.71,95.71-131.12,169.78-164.05
		c18.55-8.25,37.93-14.88,58.03-19.76c25.97-6.32,53.09-9.66,80.98-9.66c63.1,0,122.3,17.12,173.16,46.97
		c50.47,29.6,92.74,71.74,122.51,122.1c30.21,51.09,47.54,110.63,47.54,174.13c0,20.92-1.88,41.4-5.49,61.3
		c-4.57,25.33-11.96,49.73-21.81,72.81C1219.62,801.92,1097.72,888.21,956.03,888.21z"/>
	<path class="st3" d="M1283.03,649.31l4.29-6.49c0,0,0.3-3.38,0.39-9.47C1286.29,638.72,1284.72,644.05,1283.03,649.31z"/>
	<circle class="st4" cx="956.03" cy="545" r="388.83"/>
	<g>
		<path class="st0" d="M1041.84,81.29c1.97,0.28,3.31,1.41,4.03,3.4c0.1,0.6,0.1,1.27,0.01,2.02c-0.2,1.61-0.78,2.93-1.74,3.95
			c-2.37,2.52-5.85,3.68-10.45,3.48c-2.16-0.36-3.59-1.24-4.28-2.63c-0.35-1.06-0.47-2.04-0.36-2.94c0.19-1.51,1.08-2.93,2.69-4.27
			C1034.76,81.75,1038.13,80.75,1041.84,81.29z M1033.69,88.91c0.19,0.39,0.64,0.72,1.35,1l0.82,0.1c0.32,0.04,0.66,0.08,1.02,0.1
			c2.09-0.57,3.57-1.35,4.43-2.34c0.11-0.21,0.18-0.43,0.21-0.65c0.13-1.05-0.66-1.64-2.37-1.77c-1.05,0.13-1.8,0.3-2.24,0.52
			c-0.99,0.33-1.77,0.74-2.34,1.23c-0.57,0.5-0.88,0.95-0.93,1.36C1033.62,88.61,1033.64,88.76,1033.69,88.91z"/>
		<path class="st0" d="M1025.22,112.62c-1.67,0.96-3.74,1.93-6.21,2.91c-2.8,1.12-4.62,1.68-5.43,1.68c-0.1,0-0.23-0.01-0.38-0.04
			c-0.9-0.15-1.59-0.78-2.08-1.91c-0.43-0.99-0.57-1.92-0.43-2.78c0.13-0.79,0.6-1.16,1.4-1.1c0.05,0.01,0.16,0.02,0.33,0.03
			c0.17,0.01,0.36,0.04,0.56,0.09c-0.07-0.01,0.37,0.09,1.33,0.32c0.9,0.22,1.44,0.31,1.62,0.27c1.2-0.24,2.79-0.75,4.76-1.56
			c2.87-1.18,5.17-2.43,6.92-3.76c-0.46-0.46-0.66-1.04-0.6-1.74c0.07-0.86,0.71-1.58,1.92-2.19c1.1-0.56,2.1-0.77,2.99-0.62
			c1.42,0.23,2.07,1.05,1.94,2.45c0.3,0.17,1.18-0.07,2.65-0.74c0.44-0.27,1.24-0.68,2.39-1.22c0.33,0,0.6,0.02,0.82,0.06
			c0.3,0.05,0.53,0.13,0.66,0.24c0.49,0.39,0.78,0.88,0.88,1.47c-0.02,0.52-0.24,1.04-0.68,1.57c-0.43,0.53-0.65,0.84-0.65,0.95
			c-0.02,0.22,0.1,0.36,0.35,0.42c0.99,0.23,2.67-0.55,5.05-2.34c0.95-0.52,1.62-0.74,1.98-0.66c0.52,0.1,1.01,0.7,1.48,1.78
			c0.22,0.54,0.06,1.14-0.5,1.79c-1.59,1.86-3.63,3.07-6.12,3.65c-1.21,0.29-2.28,0.37-3.22,0.25c-1.84-0.22-2.78-1.12-2.8-2.73
			c-0.73-0.1-2.05-0.33-3.95-0.68C1031.59,108.93,1029.26,110.3,1025.22,112.62z"/>
		<path class="st0" d="M1076.82,91.04c0.5,0.1,0.89,0.43,1.16,0.99c0.27,0.55,0.35,1.09,0.25,1.61c-0.11,0.52-0.45,0.89-1.01,1.1
			c-2.26,0.85-4.76,1.7-7.53,2.55l-4.87,1.49c-1.55,0.47-2.58,0.71-3.09,0.73c-0.31,0.08-0.61,0.09-0.9,0.03
			c-0.49-0.1-0.77-0.33-0.85-0.7c-0.21-1.01-0.3-1.59-0.27-1.76c0.2-0.97,0.9-1.48,2.09-1.51c4.65-1.2,9.34-2.67,14.08-4.43
			C1076.22,91.01,1076.54,90.98,1076.82,91.04z"/>
		<path class="st0" d="M1093.94,116.43c1.1-1.1,1.86-1.55,2.28-1.35c0.52,0.25,1,0.63,1.44,1.16c0.53,0.61,0.75,1.15,0.67,1.65
			c-0.11,0.65-0.76,1.52-1.96,2.61c-0.56,0.5-1.27,0.93-2.11,1.29c-2.43,1.03-5.23,1.21-8.41,0.56c-0.36,0.03-1.27-0.16-2.73-0.55
			l-23.99-6.5c-1.53,0.84-3.64,1.85-6.33,3.02c-1.19,0.51-1.99,0.71-2.4,0.6c-0.45-0.12-0.89-0.57-1.32-1.36
			c-0.43-0.79-0.59-1.41-0.46-1.87c0.21-0.78,0.85-1.39,1.91-1.82c0.28-0.1,1.13-0.44,2.56-1.01l-1-0.83
			c-0.22-0.24-0.39-0.66-0.51-1.26l0.06-0.81c0.51-1.23,1.33-1.99,2.46-2.29c1.7-0.44,2.91-0.57,3.64-0.37
			c0.23,0.06,0.45,0.14,0.66,0.23c0.36,0.1,1.02,0.5,1.97,1.2c0.59,0.62,0.91,1.54,0.95,2.76c0.57,0.21,5.48,1.57,14.76,4.09
			c4.18,1.14,6.52,1.75,7.01,1.83c2.8,0.46,4.34,0.7,4.6,0.72c2.09,0.14,3.47,0.02,4.15-0.36
			C1092.23,117.63,1092.93,117.19,1093.94,116.43z M1071.42,108.55c2.1-1.44,3.61-2.09,4.53-1.97c0.9,0.6,1.38,0.93,1.43,1
			c0.53,0.61,1.09,1.88,1.7,3.82c0.14,1.57,0.14,2.61,0,3.14c-0.09,0.35-0.26,0.49-0.49,0.43c-0.27-0.07-0.75-0.56-1.44-1.46
			l-2.09-2.7c-0.04-0.05-0.09-0.08-0.16-0.1c-0.08-0.02-1.03,0.26-2.85,0.86c-1.81,0.6-3.02,0.82-3.61,0.66
			c-0.15-0.04-0.29-0.1-0.41-0.16C1068.2,111.16,1069.32,109.98,1071.42,108.55z"/>
		<path class="st0" d="M1120.66,110.05c-1.6,0.7-2.5,1.38-2.73,2.03c-0.03,0.08-0.02,0.16,0.03,0.23c-0.13,0.12,0.12,0.3,0.76,0.56
			c1.35,0.55,2.34,0.79,2.98,0.72c0.36,0.05,0.68,0.12,0.96,0.22c1.67,0.57,2.28,1.51,1.83,2.82c-0.41,1.2-1.17,1.68-2.28,1.45
			c-0.76-0.06-1.82-0.32-3.18-0.78c-4.64-1.58-6.48-3.76-5.53-6.55c0.13-0.39,0.28-0.67,0.45-0.85c1.14-1.6,2.84-2.85,5.1-3.75
			c1.11-0.45,1.86-0.77,2.25-0.95c0.62-0.28,1.42-0.44,2.42-0.48c0.31-0.02,0.54,0.02,0.67,0.12c1.23,0.91,1.64,1.95,1.24,3.13
			c-0.2,0.58-0.82,0.96-1.88,1.13C1122.21,109.51,1121.17,109.83,1120.66,110.05z M1132.46,113.17c-1.6,0.71-2.5,1.38-2.72,2.03
			c-0.03,0.08-0.02,0.16,0.03,0.23c-0.13,0.12,0.12,0.3,0.76,0.56c1.35,0.55,2.35,0.79,2.98,0.72c0.36,0.05,0.68,0.12,0.96,0.22
			c1.67,0.57,2.28,1.51,1.84,2.82c-0.41,1.2-1.17,1.68-2.28,1.45c-0.76-0.06-1.82-0.32-3.18-0.78c-4.64-1.58-6.48-3.76-5.53-6.55
			c0.13-0.39,0.28-0.67,0.45-0.85c1.14-1.6,2.84-2.85,5.1-3.75c1.11-0.45,1.86-0.77,2.25-0.95c0.62-0.28,1.42-0.44,2.41-0.48
			c0.31-0.02,0.54,0.02,0.67,0.12c1.23,0.91,1.64,1.95,1.24,3.14c-0.2,0.58-0.82,0.96-1.88,1.13
			C1134.01,112.62,1132.97,112.94,1132.46,113.17z"/>
		<path class="st0" d="M1121.45,135.5c1.27-1.19,2.01-2.05,2.21-2.57c0.06-0.14,0.04-0.23-0.04-0.26c-0.03-0.01-0.08-0.01-0.14,0
			c-1.28,0.32-2.74,0.71-4.39,1.14c-3.31,0.9-5.51,1.43-6.62,1.6l-5.29,0.83c-1.27,0.2-2.41,0.28-3.44,0.24
			c-0.16-0.01-0.32-0.04-0.48-0.1c-0.51-0.19-0.94-0.67-1.27-1.44c-0.53-1.22-0.58-2.4-0.15-3.52c0.16-0.42,0.4-0.74,0.72-0.96
			c0.46-0.25,1.1-0.22,1.92,0.09c0.24,0.09,0.58,0.23,1.03,0.43s0.79,0.34,1.03,0.43c0.5,0.19,0.95,0.3,1.35,0.35
			c0.19-0.02,0.32-0.03,0.39-0.02l1.28-0.18c2.11-0.3,3.55-0.54,4.31-0.71l8.29-1.95c2.19-0.51,3.5-0.75,3.92-0.72
			c0.62,0.05,1.21,0.42,1.75,1.1c0.81,1,0.96,2.2,0.43,3.6c-0.47,1.25-1.41,2.65-2.82,4.21c-2.07,2.28-3.89,3.81-5.47,4.61
			c-0.29,0.15-0.63,0.15-1.02,0c-0.5-0.19-0.94-0.57-1.32-1.16c-0.44-0.64-0.57-1.19-0.39-1.66c0.18-0.48,0.48-0.8,0.88-0.96
			C1118.98,137.59,1120.09,136.78,1121.45,135.5z"/>
		<path class="st0" d="M1137.11,161.75c0.47,0.2,0.79,0.59,0.95,1.19c0.16,0.6,0.14,1.14-0.06,1.63c-0.11,0.25-0.52,0.55-1.24,0.9
			c-0.7,0.21-2.28,0.45-4.75,0.73l-8.15,0.87c-1.59,0.17-2.65,0.22-3.17,0.13c-0.32,0.01-0.62-0.03-0.88-0.15
			c-0.46-0.19-0.69-0.47-0.71-0.85c-0.02-1.03,0.01-1.62,0.07-1.78c0.38-0.92,1.16-1.28,2.34-1.09c4.79-0.29,9.68-0.85,14.66-1.68
			C1136.53,161.61,1136.84,161.64,1137.11,161.75z"/>
		<path class="st0" d="M1174.57,150.22c1.28-0.89,2.11-1.19,2.49-0.92c0.47,0.34,0.87,0.8,1.21,1.4c0.41,0.69,0.53,1.27,0.36,1.74
			c-0.22,0.62-1.02,1.35-2.4,2.21c-0.64,0.39-1.41,0.69-2.31,0.89c-2.57,0.57-5.36,0.25-8.37-0.96c-0.36-0.04-1.22-0.39-2.58-1.04
			l-22.42-10.71c-1.65,0.56-3.91,1.17-6.77,1.83c-1.26,0.29-2.08,0.34-2.47,0.16c-0.42-0.2-0.77-0.72-1.05-1.57
			c-0.29-0.85-0.33-1.49-0.12-1.92c0.35-0.73,1.08-1.21,2.2-1.45c0.29-0.05,1.19-0.23,2.7-0.53l-0.83-1
			c-0.17-0.27-0.26-0.72-0.27-1.33l0.2-0.79c0.72-1.11,1.67-1.72,2.83-1.8c1.75-0.13,2.97-0.03,3.65,0.29
			c0.22,0.1,0.42,0.22,0.6,0.35c0.34,0.16,0.91,0.67,1.71,1.53c0.47,0.72,0.62,1.68,0.44,2.89c0.52,0.31,5.11,2.53,13.78,6.68
			c3.91,1.87,6.1,2.89,6.57,3.06c2.67,0.96,4.14,1.47,4.39,1.53c2.03,0.52,3.41,0.65,4.14,0.39
			C1172.68,151.1,1173.45,150.78,1174.57,150.22z"/>
		<path class="st0" d="M1197.49,151.19c0.39,0.21,0.56,0.63,0.49,1.24c-0.04,0.5-0.19,0.96-0.45,1.36c-0.37,0.56-1.2,0.83-2.49,0.81
			c-1.03-0.01-2.04-0.3-3.05-0.85c-1.61-0.88-2.61-1.99-3-3.34c-0.23-1.3,0.02-2.56,0.75-3.78c0.67-1.12,1.57-2.05,2.7-2.8
			c2.84-1.88,6.71-3.11,11.6-3.7c5.54-0.66,9.9-0.12,13.08,1.62c1.4,0.76,2.32,1.8,2.76,3.12c0.44,1.31,0.29,2.66-0.47,4.05
			c-1.78,3.26-6.09,4.87-12.92,4.82c-0.87-0.01-2.04-0.08-3.49-0.21c-0.43-0.04-0.84-0.16-1.23-0.38c-0.89-0.48-1.03-1.28-0.43-2.37
			c0.43-0.78,1.09-1.07,2-0.87c2.23,0.07,4.68,0.05,7.35-0.05c0.74-0.03,1.63-0.26,2.69-0.69c1.24-0.51,2.05-1.12,2.42-1.81
			c0.57-1.05,0.24-1.92-1.01-2.6c-3.17-1.17-6.97-1.45-11.4-0.84c-4.62,0.63-7.98,1.96-10.06,3.99c-0.13,0.12-0.24,0.27-0.33,0.44
			c-0.44,0.8-0.09,1.5,1.04,2.12c0.74,0.4,1.74,0.61,3.02,0.63C1197.23,151.09,1197.37,151.13,1197.49,151.19z"/>
		<path class="st0" d="M1216.17,175.6c1.37-0.75,2.23-0.96,2.57-0.65c0.43,0.38,0.78,0.89,1.05,1.53c0.33,0.73,0.39,1.32,0.18,1.77
			c-0.28,0.59-1.16,1.24-2.62,1.94c-0.68,0.32-1.48,0.54-2.39,0.64c-2.62,0.29-5.36-0.32-8.22-1.85c-0.35-0.08-1.17-0.51-2.46-1.31
			l-21.16-13.04c-1.7,0.38-4.01,0.74-6.93,1.1c-1.28,0.15-2.11,0.12-2.47-0.11c-0.39-0.24-0.69-0.8-0.88-1.68
			c-0.2-0.88-0.17-1.52,0.09-1.93c0.42-0.68,1.21-1.09,2.35-1.21c0.29-0.02,1.21-0.1,2.74-0.24l-0.72-1.08
			c-0.14-0.29-0.19-0.74-0.13-1.35l0.29-0.76c0.84-1.03,1.84-1.53,3.01-1.49c1.76,0.06,2.96,0.29,3.6,0.68
			c0.2,0.13,0.39,0.26,0.56,0.41c0.32,0.2,0.83,0.77,1.54,1.71c0.39,0.76,0.44,1.74,0.13,2.92c0.48,0.36,4.81,3.06,12.99,8.11
			c3.69,2.28,5.76,3.53,6.21,3.74c2.56,1.24,3.96,1.9,4.21,1.99c1.96,0.73,3.32,1.01,4.08,0.83
			C1214.2,176.27,1215,176.04,1216.17,175.6z"/>
		<path class="st0" d="M1243.75,176.46c-1.73,0.24-2.79,0.64-3.18,1.2c-0.05,0.07-0.06,0.15-0.03,0.23
			c-0.16,0.08,0.03,0.33,0.58,0.74c1.15,0.9,2.04,1.4,2.67,1.51c0.33,0.15,0.62,0.31,0.86,0.47c1.45,1.01,1.78,2.08,0.99,3.22
			c-0.72,1.04-1.59,1.29-2.6,0.76c-0.71-0.26-1.66-0.81-2.84-1.63c-4.02-2.8-5.19-5.4-3.51-7.82c0.23-0.34,0.46-0.57,0.67-0.69
			c1.54-1.22,3.52-1.95,5.94-2.19c1.2-0.13,2-0.22,2.42-0.29c0.67-0.09,1.49-0.03,2.45,0.21c0.31,0.07,0.51,0.17,0.61,0.3
			c0.93,1.21,1.04,2.33,0.33,3.36c-0.35,0.51-1.06,0.69-2.11,0.57C1245.39,176.36,1244.31,176.39,1243.75,176.46z"/>
		<path class="st0" d="M1229.96,196.77c1.55-0.79,2.49-1.41,2.83-1.87c0.09-0.12,0.1-0.21,0.04-0.26c-0.03-0.02-0.07-0.03-0.13-0.04
			c-1.32-0.04-2.83-0.08-4.54-0.11c-3.42-0.05-5.69-0.14-6.8-0.29l-5.31-0.65c-1.27-0.16-2.4-0.4-3.38-0.72
			c-0.15-0.05-0.3-0.13-0.44-0.23c-0.44-0.33-0.71-0.9-0.82-1.73c-0.17-1.32,0.1-2.46,0.82-3.43c0.27-0.36,0.59-0.6,0.96-0.73
			c0.51-0.11,1.12,0.09,1.82,0.61c0.21,0.15,0.5,0.39,0.87,0.7c0.38,0.31,0.67,0.54,0.87,0.7c0.43,0.32,0.83,0.55,1.21,0.7
			c0.19,0.03,0.32,0.06,0.38,0.09l1.27,0.18c2.11,0.29,3.56,0.46,4.34,0.5l8.51,0.4c2.25,0.11,3.57,0.24,3.97,0.39
			c0.58,0.22,1.04,0.74,1.38,1.54c0.5,1.19,0.31,2.38-0.58,3.58c-0.8,1.07-2.09,2.16-3.87,3.27c-2.62,1.62-4.79,2.59-6.53,2.92
			c-0.32,0.06-0.65-0.03-0.98-0.28c-0.43-0.32-0.74-0.81-0.95-1.48c-0.24-0.74-0.22-1.3,0.08-1.7c0.31-0.41,0.68-0.64,1.11-0.68
			C1227.01,198.1,1228.3,197.63,1229.96,196.77z"/>
		<path class="st0" d="M1295.3,213.39c1.46,1.35,1.91,3.05,1.37,5.09c-0.26,0.55-0.64,1.1-1.15,1.66c-1.09,1.21-2.31,1.97-3.68,2.26
			c-3.38,0.72-6.9-0.31-10.57-3.1c-1.58-1.53-2.25-3.06-2.02-4.6c0.32-1.07,0.78-1.95,1.38-2.62c1.02-1.13,2.56-1.8,4.64-1.98
			C1289.22,209.74,1292.56,210.83,1295.3,213.39z M1284.26,215.01c-0.06,0.43,0.12,0.96,0.54,1.59l0.61,0.55
			c0.24,0.22,0.5,0.44,0.78,0.67c2.04,0.72,3.7,0.92,4.98,0.6c0.21-0.11,0.39-0.25,0.54-0.41c0.71-0.79,0.4-1.72-0.94-2.8
			c-0.94-0.49-1.65-0.78-2.14-0.85c-1-0.3-1.87-0.4-2.63-0.32c-0.75,0.08-1.27,0.28-1.54,0.58
			C1284.37,214.73,1284.3,214.86,1284.26,215.01z"/>
		<path class="st0" d="M1265.89,227.89c-0.95-0.79-1.58-1.34-1.91-1.65c-0.82-0.78-0.79-1.62,0.07-2.53c0.72-0.75,1.7-0.79,2.94-0.1
			l2.24,1.26c2.99,1.06,5.15,1.42,6.47,1.08c0.75-0.19,1.44,0.02,2.07,0.63c0.16,0.23,0.3,0.59,0.4,1.1
			c0.19,0.92-0.03,1.65-0.64,2.19c-0.63,0.16-1.13,0.21-1.5,0.16c-0.91-0.11-1.51-0.19-1.78-0.22c2.81,2.15,4.5,3.43,5.09,3.85
			c0.46,0.58,0.4,1.18-0.18,1.78c-0.48,0.49-0.88,0.74-1.22,0.75l-1.68-0.33c-6.39-1.31-11.9-2.51-16.53-3.61
			c-5.44-1.28-9.05-2.13-10.82-2.55c-1.07-0.27-2.4-0.63-3.98-1.08c-0.28-0.08-0.52-0.21-0.72-0.4c-0.54-0.52-0.65-1.36-0.33-2.52
			c0.28-0.99,0.71-1.78,1.29-2.39c0.58-0.6,1.14-0.65,1.67-0.14c0.2,0.19,0.46,0.49,0.8,0.89c0.34,0.4,0.6,0.7,0.8,0.89
			c0.61,0.58,1.26,1,1.97,1.25c0.1,0.05,0.16,0.08,0.2,0.09l0.02,0.02l-0.02,0.02c0.02,0,0.05,0,0.09,0.02l2.21,0.62
			c4.93,1.38,10.59,2.67,16.97,3.85C1267.92,229.35,1266.59,228.37,1265.89,227.89z"/>
		<path class="st0" d="M1314.8,237.13c0.36,0.37,0.49,0.86,0.41,1.47c-0.09,0.61-0.32,1.1-0.7,1.47c-0.38,0.37-0.87,0.49-1.46,0.35
			c-2.34-0.56-4.9-1.27-7.66-2.11l-4.87-1.5c-1.55-0.48-2.53-0.85-2.97-1.13c-0.3-0.11-0.55-0.27-0.76-0.48
			c-0.35-0.36-0.45-0.71-0.31-1.06c0.39-0.95,0.64-1.49,0.77-1.61c0.71-0.7,1.57-0.72,2.58-0.08c4.52,1.62,9.24,3.03,14.15,4.23
			C1314.32,236.77,1314.6,236.92,1314.8,237.13z"/>
		<path class="st0" d="M1314.76,267.54c1.53-0.31,2.41-0.26,2.65,0.14c0.3,0.49,0.48,1.08,0.56,1.76c0.11,0.8-0.01,1.38-0.35,1.74
			c-0.44,0.48-1.47,0.84-3.08,1.09c-0.75,0.11-1.57,0.08-2.47-0.09c-2.59-0.49-5.03-1.88-7.31-4.18c-0.32-0.18-0.97-0.83-1.96-1.97
			l-16.39-18.67c-1.74-0.14-4.05-0.47-6.94-0.99c-1.27-0.23-2.05-0.51-2.33-0.83c-0.31-0.35-0.42-0.97-0.35-1.86
			c0.07-0.89,0.29-1.5,0.65-1.81c0.61-0.53,1.47-0.68,2.6-0.46c0.29,0.07,1.18,0.26,2.69,0.58l-0.37-1.24
			c-0.05-0.32,0.04-0.76,0.27-1.33l0.5-0.64c1.1-0.74,2.21-0.92,3.31-0.55c1.66,0.57,2.74,1.14,3.24,1.71
			c0.16,0.18,0.3,0.37,0.42,0.56c0.25,0.28,0.57,0.98,0.97,2.08c0.15,0.85-0.09,1.79-0.73,2.83c0.36,0.48,3.7,4.34,10.03,11.57
			c2.86,3.26,4.47,5.06,4.83,5.4c2.08,1.93,3.22,2.98,3.43,3.14c1.66,1.27,2.88,1.94,3.66,1.99
			C1312.68,267.6,1313.51,267.62,1314.76,267.54z"/>
		<path class="st0" d="M1348.49,276.69c1.2,1.58,1.35,3.33,0.46,5.25c-0.35,0.49-0.83,0.97-1.42,1.44
			c-1.28,1.01-2.62,1.53-4.02,1.58c-3.45,0.12-6.74-1.51-9.88-4.89c-1.29-1.78-1.68-3.4-1.18-4.88c0.5-1,1.1-1.78,1.82-2.34
			c1.2-0.94,2.84-1.32,4.91-1.14C1343.13,272.03,1346.23,273.69,1348.49,276.69z M1337.33,276.36c-0.13,0.41-0.05,0.96,0.26,1.66
			l0.51,0.65c0.2,0.26,0.42,0.52,0.66,0.79c1.88,1.07,3.48,1.56,4.8,1.46c0.23-0.07,0.43-0.17,0.61-0.31
			c0.84-0.66,0.69-1.63-0.43-2.92c-0.84-0.65-1.49-1.05-1.96-1.21c-0.93-0.47-1.78-0.73-2.53-0.77c-0.76-0.05-1.3,0.05-1.62,0.31
			C1337.49,276.11,1337.4,276.22,1337.33,276.36z"/>
		<path class="st0" d="M1330.59,288.48c0.78,1.07,1.15,2.2,1.13,3.41c-0.02,1.31-0.55,2.34-1.58,3.1c-0.6,0.44-1.28,0.68-2.04,0.73
			c-2.25,0.14-4.78-0.82-7.57-2.87c-1.74-1.28-3.84-3.51-6.3-6.7c-1.94-0.92-3.82-1.22-5.63-0.91c-0.26,0.04-0.51,0.15-0.75,0.32
			c-0.93,0.68-1.1,1.73-0.53,3.15c0.2,0.51,0.83,1.55,1.87,3.12c0.6,0.9,1.48,1.92,2.65,3.06c1.55,1.5,2.26,2.18,2.15,2.02
			c0.49,0.9,0.22,1.71-0.79,2.45c-0.66,0.49-1.25,0.56-1.75,0.23c-1.79-1.2-3.58-3.03-5.38-5.49c-0.42-0.58-0.77-1.09-1.03-1.54
			c-2.08-3.55-2.57-6.31-1.45-8.3c0.32-0.87,0.92-1.57,1.8-2.11c1.67-1.03,4.22-1.18,7.66-0.45c0.01-0.98,0.46-1.8,1.36-2.46
			c0.76-0.56,1.72-0.93,2.87-1.13c1.15-0.2,2.18-0.16,3.08,0.12c1.32,0.41,2.33,0.97,3.01,1.68c0.73,0.76,1.24,1.53,1.53,2.32
			l0.6,2.56C1327.75,285.7,1329.44,286.91,1330.59,288.48z M1321.76,283.28c-0.47-0.64-1.13-1.07-1.99-1.3
			c-0.86-0.23-1.62-0.16-2.29,0.2c-0.43,0.23-0.47,0.57-0.14,1.03c0.17,0.23,0.47,0.51,0.88,0.82c0.94,0.71,2.01,0.88,3.21,0.52
			C1322.12,284.34,1322.22,283.92,1321.76,283.28z M1321.57,288.78c-0.06,0.1-0.03,0.22,0.1,0.39c0.42,0.58,1.29,1.18,2.59,1.8
			c1.43,0.68,2.39,0.83,2.89,0.47c0.08-0.06,0.14-0.25,0.16-0.56c-0.52-0.92-1.4-1.62-2.65-2.1c-1.39-0.53-2.34-0.61-2.85-0.24
			C1321.71,288.6,1321.63,288.68,1321.57,288.78z"/>
		<path class="st0" d="M1359.83,301.98c-0.87-1.52-1.31-2.41-1.31-2.65c-0.03-0.93,0.25-1.6,0.86-2.02
			c0.83-0.57,1.75-0.54,2.74,0.09c0.93,0.94,1.59,1.78,1.98,2.5c0.48,0.89,0.91,2.02,1.28,3.39c0.26,0.96,0.26,1.99-0.01,3.09
			c-0.21,0.85-0.68,1.52-1.42,2.02c-1.05,0.71-2.53,0.93-4.43,0.66c-1.51-0.21-2.97-0.67-4.38-1.37c-2.23-1.09-3.84-2.23-4.81-3.41
			c-0.46-0.56-0.66-1.15-0.6-1.8c0.06-0.64,0.39-1.17,0.98-1.57c0.92-0.63,1.75-0.53,2.5,0.29c0.65,0.72,1.39,1.31,2.2,1.77
			c0.58,0.33,1.42,0.73,2.53,1.2c1.52,0.65,2.46,0.84,2.83,0.59C1361.07,304.56,1360.76,303.63,1359.83,301.98z"/>
		<path class="st0" d="M1330.6,308.91c0.85-0.54,1.82-0.36,2.9,0.53c0.95,0.8,2.01,1.57,3.18,2.33c-0.11-0.84-0.17-1.53-0.19-2.07
			c-0.02-1.18,0.09-1.92,0.34-2.19c0.35-0.4,0.75-0.65,1.21-0.73c0.52-0.11,0.94,0.05,1.27,0.47c1.26,1.64,2.76,2.8,4.49,3.48
			c0.87,0.34,1.46,0.77,1.8,1.29c0.07,0.12,0.11,0.22,0.11,0.32c0,0.61-0.17,1.12-0.51,1.54c-0.1,0.13-0.45,0.38-1.04,0.75
			c-0.01-0.01-0.11-0.02-0.31-0.01c-0.4,0.01-0.79-0.09-1.16-0.3c-0.45-0.14-0.77-0.25-0.95-0.34c-0.65-0.32-1.02-0.5-1.11-0.54
			c-0.46-0.25-0.75-0.35-0.85-0.28c-0.03,0.04-0.01,0.2,0.08,0.47c0.44,1.46,0.29,2.43-0.44,2.9c-0.13,0.08-0.42,0.14-0.86,0.18
			c-0.57-0.1-1-0.21-1.27-0.32c-1.29-0.5-2.22-0.91-2.79-1.24c-0.64-0.24-0.91-0.4-0.81-0.46c-0.06,0.06-0.17,0.43-0.32,1.12
			c-0.2,0.45-0.33,0.74-0.4,0.86c-0.09,0.08-0.18,0.14-0.27,0.2c-0.61,0.39-1.65,0.21-3.13-0.51c-11.54-5.72-17.79-9.21-18.74-10.47
			c-0.4-0.53-0.35-1.36,0.16-2.48c0.43-0.98,0.95-1.71,1.55-2.17c0.93-0.73,1.7-0.62,2.31,0.33c0.17,0.27,0.35,0.59,0.51,0.95
			c0.06,0.13,0.37,0.63,0.93,1.51c0.29,0.46,0.66,0.89,1.11,1.27c1.95,1.32,3.56,2.32,4.83,3.02c3.09,1.67,5.6,2.95,7.54,3.83
			C1329.75,310.34,1330.03,309.26,1330.6,308.91z"/>
		<path class="st0" d="M1391.07,355.47c0.24,0.46,0.22,0.97-0.04,1.53c-0.26,0.56-0.63,0.96-1.1,1.2c-0.47,0.24-0.97,0.21-1.49-0.1
			c-2.08-1.22-4.31-2.64-6.71-4.26l-4.22-2.85c-1.34-0.91-2.17-1.56-2.51-1.95c-0.26-0.19-0.45-0.42-0.58-0.68
			c-0.23-0.44-0.22-0.81,0.01-1.1c0.65-0.8,1.05-1.23,1.2-1.31c0.88-0.46,1.71-0.23,2.49,0.68c3.85,2.87,7.95,5.6,12.28,8.18
			C1390.72,354.99,1390.94,355.21,1391.07,355.47z"/>
		<path class="st0" d="M1369.14,366.02c0.4-0.19,0.32-0.9-0.26-2.12l-1.95-3.17c-0.1-0.16-0.34-0.49-0.72-0.99
			c-0.31-0.4-0.52-0.74-0.66-1.03c-0.18-0.39-0.21-0.75-0.09-1.09c0.33-0.59,0.76-1.01,1.3-1.27c0.36-0.17,0.76-0.26,1.22-0.29
			c0.91-0.24,2.16,1.06,3.75,3.91c0.4,0.72,0.95,2.18,1.66,4.36c0.77,2.4,0.83,4.02,0.17,4.86c-0.61,0.76-1.29,1.24-2.05,1.43
			c-0.59,0.15-1.06,0.2-1.4,0.18c-0.92-0.19-1.74-0.44-2.47-0.77c-1.39-0.61-2.59-1.24-3.61-1.88c-2.33-1.44-5.2-3.61-8.61-6.5
			c-1.77-1.5-3.46-3.01-5.09-4.53c-0.74-0.69-1.04-1.47-0.9-2.33c0.61-1.52,1.42-2.52,2.42-2.99c0.9-0.42,1.58-0.14,2.05,0.85
			c0.12,0.25,0.25,0.64,0.41,1.17c0.16,0.53,0.29,0.92,0.41,1.17c0.2,0.42,0.42,0.76,0.68,1.02c1.33,1.34,2.02,2.02,2.05,2.05
			c1.4,1.31,3.11,2.71,5.13,4.2c3.02,2.23,5.09,3.53,6.21,3.89C1368.9,366.12,1369.02,366.08,1369.14,366.02z"/>
		<path class="st0" d="M1403.27,384.96c0.21,0.47,0.16,0.98-0.14,1.52c-0.3,0.54-0.69,0.92-1.18,1.13
			c-0.49,0.21-0.98,0.15-1.49-0.19c-1.99-1.36-4.13-2.92-6.41-4.7l-4.02-3.13c-1.27-1-2.06-1.7-2.37-2.11
			c-0.24-0.21-0.42-0.45-0.54-0.72c-0.2-0.46-0.17-0.82,0.08-1.1c0.7-0.75,1.13-1.16,1.29-1.23c0.91-0.4,1.72-0.12,2.44,0.84
			c3.65,3.12,7.56,6.11,11.71,8.98C1402.94,384.45,1403.15,384.69,1403.27,384.96z"/>
		<path class="st0" d="M1384.25,390.24c0.27,0.76,0.31,1.5,0.13,2.22c-0.37,1.47-1.15,2.69-2.34,3.66c-0.47,0.26-0.73,0.4-0.77,0.42
			c-1.8,0.66-3.59,0.62-5.35-0.11c-1.71-1-2.97-2.66-3.79-4.97c-0.72-2.01-0.54-4.16,0.54-6.44c-0.83-0.94-1.73-1.83-2.69-2.67
			c-0.06-0.05-0.13-0.06-0.21-0.03c-0.02,0.01-0.37,0.54-1.06,1.61c-0.69,1.07-1.21,1.66-1.55,1.78c-1.28,0.45-2.67,0.08-4.17-1.11
			c-1-0.8-2.23-2.27-3.68-4.4c-0.43-0.62-0.93-1.49-1.5-2.61c-0.23-0.44-0.1-1.01,0.4-1.71c0.41-0.59,0.87-1.02,1.37-1.29
			c1.15-0.62,1.89-0.54,2.2,0.26c0.13,0.33,0.24,0.91,0.31,1.73c0.08,0.82,0.19,1.41,0.33,1.77c0.05,0.13,0.19,0.42,0.43,0.88
			c0.06,0.05,0.16,0.2,0.32,0.46c0.23,0.26,0.51,0.56,0.83,0.91c0.64,0.69,1.13,0.96,1.46,0.83c0.11-0.04,0.49-0.67,1.13-1.88
			c0.59-1.12,1.09-1.76,1.5-1.92c0.3-0.12,0.67-0.13,1.09-0.04c0.43-0.03,1.14,0.3,2.13,0.98c3.8,2.6,7.62,5.8,11.46,9.58
			C1383.51,388.86,1384,389.56,1384.25,390.24z M1376.33,388.65c-0.15,0.09-0.2,0.48-0.16,1.14c0.06,0.51,0.21,1.07,0.47,1.67
			c0.26,0.6,0.61,1.06,1.06,1.39c0.45,0.33,0.89,0.43,1.3,0.33c0.91-0.35,1.18-0.94,0.81-1.79c-0.17-0.39-0.63-0.96-1.36-1.7
			C1377.44,388.85,1376.73,388.51,1376.33,388.65z"/>
		<path class="st0" d="M1413.22,414.31c0.17,0.48,0.09,0.98-0.24,1.51c-0.33,0.52-0.75,0.87-1.25,1.05
			c-0.5,0.18-0.99,0.08-1.47-0.29c-1.9-1.49-3.93-3.19-6.1-5.1l-3.81-3.38c-1.21-1.08-1.95-1.83-2.23-2.26
			c-0.23-0.23-0.39-0.48-0.49-0.75c-0.17-0.47-0.12-0.83,0.15-1.09c0.75-0.71,1.2-1.09,1.36-1.15c0.94-0.34,1.73,0,2.38,1
			c3.44,3.35,7.15,6.59,11.11,9.71C1412.93,413.79,1413.12,414.04,1413.22,414.31z"/>
		<path class="st0" d="M1383.98,411.52c0.32-0.28,0.71-0.5,1.17-0.64c1.1-0.35,1.95-0.11,2.58,0.72c0.19,0.14,0.34,0.39,0.45,0.74
			c0.2,0.62,0.26,1.92,0.19,3.9l4.1,4.06c2.13,2.11,3.26,3.23,3.39,3.37c0.23,0.16,0.39,0.38,0.48,0.66
			c0.31,0.96-0.06,1.71-1.09,2.24c-0.19,0.09-0.35,0.17-0.5,0.21c-0.39,0.13-0.97-0.14-1.74-0.79c-2.46-2.7-4.13-4.44-5-5.2
			c0.12,1.56-0.02,2.83-0.43,3.81c-0.31,0.39-0.66,0.66-1.06,0.83c-0.76,0.31-1.43,0.33-2.01,0.04c-0.83-0.4-1.27-1.17-1.33-2.3
			c-0.07-1.16-0.11-1.94-0.12-2.33c-0.04-0.98-0.05-2.08-0.03-3.31c-3.52-2.75-6.16-4.9-7.91-6.46c-3.24-2.89-5.18-5.06-5.83-6.53
			c-0.2-0.48-0.12-1.08,0.26-1.81c0.52-1.01,1.46-1.73,2.82-2.16c0.87-0.28,1.48,0.15,1.84,1.27c0.08,0.25,0.17,0.63,0.29,1.15
			c0.11,0.52,0.21,0.91,0.28,1.15c0.17,0.52,0.38,0.96,0.63,1.31c1.35,1.48,2.43,2.59,3.25,3.33c1.52,1.37,3.11,2.66,4.79,3.86
			C1383.61,412.04,1383.79,411.67,1383.98,411.52z"/>
		<path class="st0" d="M1418.81,444.7c-0.34-1.72-0.47-2.7-0.39-2.93c0.27-0.89,0.75-1.44,1.46-1.64c0.97-0.27,1.83,0.05,2.56,0.97
			c0.58,1.19,0.94,2.19,1.08,3c0.17,1,0.22,2.21,0.13,3.62c-0.06,0.99-0.39,1.97-1,2.92c-0.47,0.73-1.14,1.22-1.99,1.46
			c-1.22,0.34-2.69,0.08-4.41-0.8c-1.36-0.69-2.6-1.58-3.71-2.7c-1.77-1.75-2.92-3.34-3.46-4.77c-0.26-0.67-0.26-1.31,0-1.89
			c0.26-0.59,0.74-0.98,1.43-1.17c1.07-0.3,1.83,0.06,2.27,1.07c0.39,0.89,0.9,1.68,1.52,2.38c0.44,0.5,1.11,1.15,2.01,1.94
			c1.23,1.1,2.06,1.59,2.49,1.47C1419.17,447.53,1419.17,446.55,1418.81,444.7z"/>
		<path class="st0" d="M1388.92,441.9c0.98-0.24,1.84,0.24,2.57,1.44c0.65,1.06,1.4,2.14,2.27,3.23c0.17-0.83,0.33-1.51,0.48-2.02
			c0.36-1.13,0.7-1.79,1.03-1.97c0.46-0.27,0.92-0.38,1.38-0.31c0.53,0.07,0.88,0.35,1.05,0.86c0.67,1.95,1.72,3.53,3.14,4.74
			c0.71,0.6,1.14,1.2,1.29,1.8c0.03,0.13,0.03,0.25,0,0.34c-0.19,0.58-0.52,1.01-0.98,1.3c-0.14,0.09-0.55,0.21-1.23,0.38
			c0-0.02-0.1-0.05-0.29-0.11c-0.38-0.12-0.72-0.34-1.01-0.65c-0.39-0.28-0.65-0.49-0.79-0.63c-0.51-0.51-0.8-0.8-0.87-0.87
			c-0.36-0.39-0.6-0.57-0.71-0.54c-0.05,0.03-0.07,0.18-0.07,0.47c-0.05,1.53-0.5,2.4-1.35,2.6c-0.15,0.04-0.44,0-0.87-0.11
			c-0.51-0.28-0.88-0.52-1.1-0.71c-1.06-0.89-1.81-1.58-2.25-2.07c-0.53-0.44-0.74-0.67-0.62-0.7c-0.08,0.04-0.3,0.35-0.67,0.95
			c-0.33,0.37-0.55,0.59-0.65,0.69c-0.11,0.05-0.22,0.08-0.32,0.1c-0.7,0.17-1.63-0.32-2.8-1.49c-9.1-9.12-13.91-14.43-14.41-15.93
			c-0.21-0.64,0.11-1.4,0.95-2.29c0.72-0.79,1.44-1.31,2.16-1.56c1.12-0.4,1.81-0.04,2.08,1.05c0.08,0.32,0.14,0.67,0.18,1.07
			c0.02,0.14,0.15,0.71,0.39,1.73c0.13,0.53,0.35,1.05,0.65,1.56c1.43,1.88,2.63,3.35,3.61,4.41c2.39,2.57,4.36,4.59,5.92,6.04
			C1387.66,442.99,1388.27,442.06,1388.92,441.9z"/>
		<path class="st0" d="M1426.87,502.35c-1.36-1.1-2.38-1.59-3.05-1.49c-0.08,0.01-0.15,0.06-0.19,0.13
			c-0.16-0.06-0.21,0.25-0.15,0.93c0.13,1.45,0.37,2.44,0.73,2.98c0.12,0.35,0.2,0.66,0.25,0.95c0.26,1.74-0.3,2.72-1.67,2.92
			c-1.25,0.19-2.03-0.27-2.33-1.36c-0.3-0.7-0.55-1.76-0.76-3.19c-0.72-4.84,0.37-7.48,3.29-7.92c0.41-0.06,0.73-0.06,0.96,0.01
			c1.95,0.28,3.84,1.22,5.67,2.82c0.91,0.78,1.54,1.3,1.87,1.57c0.53,0.42,1.04,1.06,1.53,1.93c0.16,0.27,0.23,0.48,0.2,0.65
			c-0.24,1.51-0.98,2.35-2.22,2.54c-0.61,0.09-1.23-0.29-1.86-1.15C1428.06,503.47,1427.3,502.7,1426.87,502.35z"/>
		<path class="st0" d="M1411.27,506.89c0.1,0.3,0.16,0.52,0.16,0.68c0.05,0.1,0.08,0.21,0.09,0.32c0.05,0.46-0.15,0.87-0.61,1.24
			c-0.39,0.32-0.83,0.51-1.31,0.56c-0.61,0.07-1.09-0.14-1.42-0.64l-0.93-1.75c-0.31-0.6-0.77-1.51-1.38-2.71
			c-0.31-0.64-0.54-0.95-0.68-0.93c-0.03,0-0.07,0.02-0.1,0.04c-0.06-0.03-0.11-0.05-0.16-0.06c-0.14,0.02-0.51,0.48-1.13,1.37
			c-0.47,0.69-1.18,1.15-2.12,1.38c-0.5,0.13-0.93,0.16-1.28,0.1c-1.18-0.21-2.25-0.85-3.22-1.93c-0.87-0.95-1.5-2.05-1.88-3.3
			c-0.71-2.23-1.17-4.12-1.4-5.66c-0.4-2.54-0.49-4-0.27-4.37c0.23-0.8,1.16-1.3,2.78-1.49c0.83-0.1,1.31,0.1,1.44,0.58
			c0.06,0.18-0.03,0.78-0.25,1.79c-0.22,1.01-0.31,1.72-0.26,2.12c0.1,0.87,0.23,1.62,0.39,2.26c0.42,1.64,0.72,2.64,0.92,3
			c0.56,1.59,1.3,2.33,2.2,2.23c0.32-0.24,0.76-0.98,1.32-2.22c0.45-1,1.12-1.55,2.01-1.66c1.58-0.18,3.43,1.81,5.53,5.98
			C1410.44,505.3,1410.96,506.32,1411.27,506.89z"/>
		<path class="st0" d="M1435.35,537.77c0.13,1.98-0.71,3.53-2.51,4.64c-0.57,0.22-1.23,0.36-1.98,0.42
			c-1.62,0.13-3.03-0.16-4.22-0.89c-2.95-1.8-4.8-4.98-5.55-9.52c-0.09-2.19,0.47-3.77,1.7-4.73c0.97-0.56,1.91-0.88,2.81-0.95
			c1.52-0.12,3.1,0.46,4.73,1.75C1433.44,530.93,1435.12,534.03,1435.35,537.77z M1426.21,531.35c-0.34,0.27-0.57,0.78-0.7,1.53
			l0.07,0.82c0.03,0.32,0.06,0.66,0.11,1.02c0.98,1.93,2.05,3.22,3.21,3.86c0.23,0.07,0.46,0.09,0.68,0.07
			c1.06-0.09,1.47-0.98,1.25-2.68c-0.34-1-0.66-1.7-0.97-2.09c-0.52-0.9-1.08-1.58-1.69-2.04s-1.11-0.67-1.52-0.64
			C1426.49,531.23,1426.34,531.27,1426.21,531.35z"/>
		<path class="st0" d="M1401.24,527.91c-1.28-1.44-2.65-3.26-4.12-5.48c-1.67-2.52-2.59-4.18-2.76-4.97
			c-0.02-0.1-0.04-0.23-0.04-0.38c-0.04-0.91,0.44-1.71,1.44-2.43c0.88-0.62,1.76-0.95,2.63-0.99c0.8-0.03,1.26,0.35,1.36,1.15
			c0,0.05,0.02,0.16,0.04,0.33c0.02,0.17,0.03,0.36,0.02,0.57c0-0.07-0.02,0.39-0.05,1.36c-0.03,0.93-0.01,1.47,0.07,1.64
			c0.48,1.13,1.31,2.58,2.5,4.34c1.74,2.57,3.43,4.57,5.09,6.01c0.35-0.54,0.88-0.86,1.58-0.94c0.85-0.1,1.7,0.37,2.53,1.44
			c0.78,0.96,1.19,1.89,1.23,2.8c0.06,1.44-0.61,2.24-2.01,2.4c-0.11,0.33,0.31,1.14,1.26,2.44c0.36,0.38,0.92,1.07,1.68,2.09
			c0.06,0.32,0.1,0.6,0.11,0.82c0.01,0.31-0.02,0.54-0.1,0.7c-0.28,0.56-0.7,0.95-1.26,1.16c-0.51,0.09-1.07-0.02-1.67-0.34
			c-0.61-0.32-0.96-0.47-1.06-0.44c-0.22,0.03-0.34,0.17-0.34,0.42c-0.03,1.01,1.08,2.5,3.33,4.46c0.7,0.83,1.05,1.43,1.05,1.81
			c0.01,0.53-0.47,1.13-1.44,1.81c-0.48,0.33-1.1,0.29-1.86-0.13c-2.14-1.18-3.75-2.92-4.83-5.25c-0.53-1.13-0.83-2.16-0.9-3.1
			c-0.16-1.85,0.53-2.95,2.1-3.3c-0.05-0.74-0.1-2.07-0.15-4C1406.15,533.39,1404.34,531.39,1401.24,527.91z"/>
		<path class="st0" d="M1386.66,565.78c0,0.51-0.24,0.96-0.73,1.34s-1,0.57-1.53,0.57c-0.27,0-0.71-0.26-1.31-0.79
			c-0.46-0.56-1.3-1.93-2.51-4.1l-3.96-7.18c-0.78-1.4-1.22-2.36-1.35-2.87c-0.14-0.29-0.21-0.58-0.21-0.87
			c0-0.5,0.17-0.82,0.51-0.98c0.94-0.41,1.49-0.62,1.67-0.62c0.99,0,1.63,0.58,1.91,1.74c2.12,4.31,4.53,8.59,7.21,12.86
			C1386.56,565.19,1386.66,565.49,1386.66,565.78z"/>
		<path class="st0" d="M1412.2,574.76c-0.02,0.53-0.33,0.98-0.94,1.33c-0.38,0.23-0.7,0.35-0.94,0.36
			c-0.86,0.04-1.74-0.73-2.63-2.31l-5.23-9.17c-2.04-3.57-3.54-6.7-4.51-9.38c-0.27-0.74-0.4-1.2-0.4-1.37
			c-0.14-1.7,0.84-2.73,2.94-3.1c0.26-0.04,0.5-0.06,0.72-0.06c0.84,0.03,1.25,0.47,1.22,1.35c-0.01,0.27-0.05,0.69-0.14,1.26
			c-0.08,0.56-0.13,0.98-0.14,1.25c-0.02,0.77,0.11,1.44,0.4,2.02c0.05,0.58,1.33,3.11,3.84,7.59c2.07,3.69,3.64,6.35,4.73,7.98
			C1411.86,573.58,1412.21,574.34,1412.2,574.76z"/>
		<path class="st0" d="M1426.85,600.3c-1.1-1.35-1.99-2.05-2.68-2.09c-0.09,0-0.16,0.03-0.21,0.09c-0.15-0.09-0.26,0.2-0.34,0.88
			c-0.17,1.45-0.14,2.47,0.1,3.07c0.05,0.36,0.06,0.69,0.04,0.98c-0.11,1.76-0.85,2.6-2.23,2.51c-1.26-0.08-1.93-0.68-2-1.82
			c-0.14-0.75-0.17-1.84-0.09-3.27c0.3-4.89,1.91-7.24,4.85-7.06c0.41,0.03,0.72,0.09,0.94,0.21c1.84,0.68,3.5,1.99,4.96,3.93
			c0.73,0.95,1.23,1.59,1.5,1.92c0.43,0.52,0.8,1.26,1.1,2.2c0.1,0.3,0.12,0.52,0.06,0.67c-0.55,1.42-1.45,2.1-2.7,2.02
			c-0.61-0.04-1.14-0.54-1.58-1.51C1427.78,601.64,1427.21,600.74,1426.85,600.3z"/>
		<path class="st0" d="M1405.41,589.14c0.88,0.13,1.94,0.78,3.17,1.95c2.13,2.01,3.03,4.79,2.69,8.33
			c-0.08,0.83-0.37,1.78-0.86,2.84c-0.97,2.08-2.21,2.96-3.71,2.64c-1.3-0.28-2.77-1.55-4.41-3.82c-1.23-1.72-2.33-3.49-3.29-5.32
			c-3.95-7.53-6.05-12.58-6.31-15.15c-0.01-0.09-0.01-0.2,0-0.34c0.06-0.65,0.57-1.16,1.51-1.53c0.64-0.35,1.34-0.53,2.11-0.52
			c1.01,0.01,1.48,0.47,1.39,1.37c-0.03,0.29-0.11,0.64-0.23,1.06c-0.37,1.22-0.31,2.41,0.18,3.58c1.25,2.96,2.45,5.6,3.61,7.93
			C1402.18,589.85,1403.56,588.85,1405.41,589.14z M1407.64,598.28c-0.04-1.07-0.16-1.82-0.35-2.25c-0.64-1.4-1.31-2.09-2-2.05
			c-0.34-0.03-0.67,0.16-0.98,0.58c-0.22,0.49-0.24,1.22-0.05,2.16c0.35,1.75,1.12,2.69,2.32,2.8
			C1407.2,599.58,1407.55,599.17,1407.64,598.28z"/>
		<path class="st0" d="M1381.15,621.2c-0.06,0.51-0.36,0.92-0.9,1.23c-0.53,0.31-1.06,0.43-1.59,0.37c-0.27-0.04-0.67-0.35-1.2-0.96
			c-0.39-0.62-1.04-2.08-1.95-4.39l-2.99-7.63c-0.59-1.49-0.91-2.5-0.96-3.02c-0.1-0.31-0.13-0.6-0.09-0.89
			c0.06-0.49,0.27-0.79,0.63-0.9c0.99-0.29,1.56-0.42,1.73-0.4c0.98,0.13,1.54,0.78,1.66,1.97c1.54,4.55,3.37,9.11,5.48,13.7
			C1381.13,620.6,1381.18,620.91,1381.15,621.2z"/>
		<path class="st0" d="M1397.63,626.12c-0.1,1.61,0.28,2.49,1.14,2.63c0.64,0.1,1.14-0.19,1.49-0.88c0.43-0.83,0.9-1.88,1.42-3.15
			c0.64-1.06,1.25-1.54,1.85-1.45c1.64,0.26,2.26,1.19,1.84,2.77c-0.09,0.35-0.16,0.69-0.21,1.01c-0.18,1.1,0.08,2.91,0.76,5.43
			c0.08,0.27,0.08,0.62,0.01,1.04c-0.08,0.51-0.36,0.91-0.83,1.21c-0.47,0.3-0.96,0.4-1.47,0.32c-0.58-0.09-1-0.49-1.27-1.19
			c-0.16-0.6-0.34-1.2-0.52-1.8c-1.08,0.88-2.37,1.23-3.86,1.04c-1.05-0.13-1.92-0.72-2.61-1.75c-1.48-2.23-1.92-5.18-1.33-8.85
			c0.06-0.37,0.22-1.2,0.48-2.5c-3.59-6.12-5.86-10.33-6.78-12.65c-1.5-3.75-2.11-6.12-1.85-7.12c0.21-0.56,0.9-1.03,2.08-1.41
			c1.08-0.35,1.96-0.46,2.63-0.36c0.56,0.09,0.95,0.32,1.17,0.68c0.12,0.35,0.14,0.72,0.08,1.1c-0.05,0.29-0.16,0.72-0.35,1.3
			c-0.19,0.58-0.31,1.01-0.35,1.3c-0.15,0.95-0.01,1.91,0.42,2.9c1.97,4.48,3.49,7.7,4.56,9.66c0.44-0.14,0.79-0.19,1.06-0.14
			c0.83,0.13,1.47,0.44,1.91,0.93c1.15,1.26,1.58,2.61,1.3,4.04c-0.36,1.78-1.18,2.73-2.47,2.85
			C1397.78,624.39,1397.68,625.4,1397.63,626.12z"/>
	</g>
	<g>
		<path class="st0" d="M534.34,653.7c0.13-0.03,0.24-0.03,0.35,0.01c0.11,0.04,0.22,0.13,0.31,0.27c0.1,0.14,0.2,0.34,0.31,0.57
			s0.22,0.55,0.32,0.95c0.1,0.37,0.17,0.69,0.2,0.96c0.04,0.27,0.04,0.49,0.03,0.66c-0.01,0.17-0.05,0.29-0.13,0.38
			c-0.07,0.09-0.17,0.15-0.3,0.19l-26.17,7.22l0.01,0.05l29.2,3.34c0.12,0.02,0.23,0.06,0.33,0.12c0.1,0.06,0.2,0.17,0.3,0.32
			c0.1,0.15,0.19,0.33,0.28,0.55c0.09,0.22,0.17,0.48,0.26,0.79c0.09,0.33,0.15,0.61,0.18,0.85c0.03,0.24,0.04,0.45,0.03,0.62
			c-0.01,0.17-0.04,0.31-0.1,0.41s-0.12,0.19-0.21,0.24l-23.49,17.37l0.01,0.02l26.16-7.22c0.13-0.03,0.24-0.03,0.35,0.01
			c0.11,0.04,0.21,0.13,0.31,0.27c0.1,0.14,0.2,0.34,0.31,0.58c0.11,0.24,0.22,0.57,0.33,0.96c0.11,0.38,0.17,0.71,0.21,0.97
			c0.03,0.27,0.04,0.48,0.03,0.65c-0.01,0.17-0.06,0.29-0.13,0.37c-0.08,0.08-0.18,0.14-0.3,0.17l-27.63,7.62
			c-0.65,0.18-1.16,0.13-1.54-0.14c-0.37-0.27-0.62-0.61-0.74-1.04l-0.68-2.45c-0.14-0.5-0.21-0.96-0.22-1.36
			c-0.01-0.4,0.04-0.77,0.17-1.11c0.12-0.34,0.31-0.65,0.57-0.92c0.26-0.28,0.58-0.54,0.96-0.8l19.38-14.59l-0.03-0.12l-24.15-2.96
			c-0.51-0.04-0.96-0.13-1.34-0.24c-0.38-0.11-0.7-0.27-0.96-0.46c-0.26-0.19-0.48-0.42-0.64-0.7c-0.17-0.27-0.31-0.61-0.41-1
			l-0.71-2.57c-0.07-0.23-0.09-0.47-0.08-0.7c0.01-0.23,0.07-0.44,0.17-0.63c0.11-0.19,0.26-0.36,0.46-0.52
			c0.2-0.16,0.46-0.28,0.79-0.37L534.34,653.7z"/>
		<path class="st0" d="M527.61,623.37c0.32-0.19,0.59-0.31,0.8-0.36c0.21-0.05,0.38-0.02,0.52,0.09c0.13,0.1,0.25,0.3,0.33,0.58
			c0.09,0.29,0.18,0.67,0.27,1.16c0.09,0.49,0.16,0.88,0.19,1.18c0.03,0.3,0.04,0.53,0.01,0.68c-0.03,0.16-0.08,0.29-0.16,0.38
			c-0.08,0.09-0.19,0.18-0.32,0.27l-6.94,4.06l2.45,12.72l7.84,1.09c0.15,0.02,0.28,0.06,0.4,0.12c0.12,0.06,0.23,0.16,0.33,0.3
			c0.1,0.13,0.19,0.34,0.28,0.61c0.08,0.27,0.17,0.63,0.25,1.07c0.09,0.46,0.14,0.84,0.16,1.14c0.02,0.3-0.02,0.52-0.11,0.66
			c-0.09,0.14-0.24,0.22-0.45,0.26c-0.22,0.03-0.51,0.02-0.88-0.04l-30.4-4.79c-0.19-0.03-0.34-0.08-0.48-0.17
			c-0.13-0.08-0.24-0.21-0.35-0.4c-0.1-0.18-0.19-0.43-0.28-0.73c-0.08-0.3-0.17-0.69-0.26-1.16c-0.1-0.51-0.16-0.92-0.21-1.26
			c-0.04-0.33-0.05-0.61-0.02-0.83c0.02-0.22,0.09-0.39,0.18-0.53c0.1-0.13,0.23-0.25,0.39-0.34L527.61,623.37z M505.05,641.37
			l0.01,0.03l16.27,2.34l-2.05-10.64L505.05,641.37z"/>
		<path class="st0" d="M524.5,602.6c0.32-0.04,0.59-0.06,0.81-0.06c0.22,0,0.41,0.03,0.57,0.08c0.16,0.05,0.29,0.12,0.37,0.22
			c0.08,0.09,0.14,0.21,0.16,0.35l1.86,13.65c0.05,0.36-0.03,0.73-0.23,1.09c-0.2,0.36-0.61,0.58-1.23,0.67l-28.59,3.89
			c-0.13,0.02-0.24,0-0.35-0.05c-0.11-0.05-0.19-0.15-0.27-0.31c-0.08-0.15-0.15-0.36-0.23-0.62c-0.08-0.26-0.14-0.59-0.19-0.97
			c-0.05-0.4-0.08-0.73-0.07-1c0-0.27,0.02-0.48,0.06-0.65c0.03-0.17,0.09-0.29,0.18-0.37c0.09-0.08,0.19-0.12,0.32-0.14l26.7-3.63
			l-1.5-11.07c-0.02-0.14,0-0.27,0.06-0.38s0.15-0.21,0.28-0.31c0.13-0.09,0.3-0.17,0.51-0.23
			C523.91,602.69,524.18,602.64,524.5,602.6z"/>
		<path class="st0" d="M507.96,575.57c2.69-0.21,5.07-0.05,7.13,0.48c2.06,0.53,3.81,1.41,5.23,2.62c1.42,1.22,2.54,2.76,3.35,4.63
			c0.8,1.87,1.31,4.13,1.52,6.79l0.52,6.58c0.03,0.37-0.07,0.73-0.29,1.07c-0.22,0.35-0.65,0.55-1.27,0.59l-27.71,2.17
			c-0.62,0.05-1.07-0.08-1.35-0.39c-0.27-0.31-0.42-0.65-0.45-1.02l-0.55-7.03c-0.21-2.69-0.04-4.99,0.51-6.9
			c0.55-1.91,1.43-3.55,2.64-4.9c1.21-1.36,2.71-2.43,4.52-3.23C503.55,576.24,505.62,575.76,507.96,575.57z M508.47,579.91
			c-1.68,0.13-3.23,0.46-4.64,0.99c-1.42,0.53-2.62,1.28-3.61,2.25c-0.99,0.97-1.72,2.16-2.21,3.57c-0.48,1.41-0.64,3.18-0.48,5.33
			l0.33,4.2l24.18-1.89l-0.33-4.25c-0.15-1.98-0.53-3.64-1.14-4.96c-0.6-1.32-1.45-2.4-2.55-3.23c-1.1-0.83-2.43-1.41-4.01-1.75
			C512.43,579.83,510.58,579.74,508.47,579.91z"/>
		<path class="st0" d="M523.13,564.21c0.13,0,0.24,0.03,0.34,0.09c0.1,0.06,0.18,0.17,0.24,0.33c0.06,0.16,0.12,0.37,0.16,0.63
			s0.08,0.6,0.09,1c0.01,0.39,0,0.71-0.03,0.99c-0.03,0.27-0.07,0.49-0.12,0.65c-0.05,0.16-0.13,0.28-0.22,0.34
			c-0.1,0.07-0.21,0.1-0.33,0.11l-29.9,0.91c-0.13,0-0.24-0.03-0.34-0.1c-0.1-0.07-0.18-0.19-0.24-0.35
			c-0.06-0.17-0.12-0.38-0.17-0.65c-0.05-0.26-0.08-0.58-0.09-0.95c-0.01-0.4,0-0.73,0.03-1c0.03-0.26,0.07-0.48,0.13-0.64
			c0.05-0.16,0.12-0.28,0.22-0.34c0.09-0.07,0.21-0.1,0.33-0.11L523.13,564.21z"/>
		<path class="st0" d="M522.98,543.64c0.18,0.07,0.32,0.16,0.43,0.27c0.11,0.11,0.2,0.27,0.26,0.47c0.06,0.2,0.1,0.46,0.12,0.77
			c0.02,0.31,0.03,0.7,0.02,1.17c-0.01,0.35-0.02,0.66-0.03,0.93c-0.01,0.26-0.04,0.49-0.07,0.69c-0.03,0.19-0.07,0.36-0.12,0.49
			c-0.04,0.14-0.09,0.25-0.16,0.35c-0.07,0.1-0.14,0.17-0.23,0.23c-0.09,0.06-0.2,0.11-0.33,0.15l-29.1,9.76
			c-0.36,0.12-0.64,0.19-0.86,0.19c-0.22,0-0.38-0.07-0.49-0.21c-0.11-0.15-0.18-0.38-0.21-0.7c-0.03-0.32-0.04-0.75-0.03-1.3
			c0.01-0.45,0.02-0.81,0.05-1.07c0.03-0.26,0.07-0.47,0.14-0.61c0.07-0.14,0.15-0.25,0.26-0.32c0.11-0.07,0.24-0.14,0.4-0.2
			l26.36-8.54v-0.02l-26.05-9.08c-0.18-0.05-0.32-0.11-0.43-0.17c-0.11-0.07-0.2-0.18-0.26-0.34c-0.06-0.16-0.1-0.39-0.12-0.68
			c-0.02-0.29-0.03-0.68-0.02-1.16c0.01-0.5,0.03-0.89,0.08-1.18c0.04-0.29,0.12-0.48,0.24-0.59c0.11-0.1,0.28-0.14,0.49-0.11
			c0.22,0.03,0.5,0.11,0.85,0.24L522.98,543.64z"/>
		<path class="st0" d="M523.91,524.47c0.13,0.01,0.24,0.05,0.33,0.12c0.09,0.07,0.16,0.19,0.21,0.35c0.05,0.16,0.08,0.38,0.11,0.65
			c0.02,0.27,0.02,0.6,0,1c-0.02,0.38-0.06,0.71-0.12,0.98c-0.06,0.27-0.12,0.48-0.18,0.64c-0.07,0.16-0.15,0.26-0.25,0.32
			c-0.1,0.06-0.21,0.08-0.34,0.08l-29.86-1.8c-0.13-0.01-0.24-0.05-0.33-0.13c-0.09-0.08-0.16-0.2-0.21-0.37
			c-0.04-0.17-0.08-0.39-0.1-0.66c-0.02-0.27-0.03-0.58,0-0.95c0.03-0.4,0.07-0.73,0.12-0.99c0.05-0.26,0.12-0.47,0.18-0.63
			c0.07-0.16,0.15-0.26,0.25-0.32c0.1-0.06,0.22-0.08,0.34-0.08L523.91,524.47z"/>
		<path class="st0" d="M526.01,493.24c0.36-0.09,0.66-0.13,0.87-0.11c0.22,0.02,0.37,0.09,0.47,0.23c0.1,0.14,0.15,0.36,0.15,0.66
			c0,0.3-0.03,0.7-0.08,1.19c-0.05,0.49-0.11,0.89-0.16,1.18c-0.05,0.29-0.12,0.51-0.19,0.66c-0.07,0.15-0.16,0.25-0.26,0.31
			c-0.1,0.06-0.23,0.12-0.38,0.17l-7.83,1.86l-1.37,12.88l7.18,3.33c0.14,0.06,0.26,0.14,0.35,0.23c0.09,0.09,0.17,0.22,0.23,0.37
			c0.06,0.16,0.08,0.38,0.09,0.66c0,0.28-0.02,0.65-0.07,1.1c-0.05,0.46-0.11,0.84-0.18,1.13c-0.07,0.29-0.17,0.49-0.29,0.6
			c-0.12,0.11-0.3,0.15-0.51,0.12c-0.22-0.03-0.49-0.13-0.83-0.29l-27.68-13.46c-0.17-0.08-0.3-0.18-0.4-0.3
			c-0.1-0.11-0.17-0.28-0.21-0.48c-0.04-0.21-0.06-0.47-0.05-0.78c0.01-0.31,0.04-0.71,0.09-1.19c0.05-0.51,0.11-0.93,0.17-1.27
			c0.06-0.33,0.13-0.6,0.22-0.8c0.09-0.2,0.19-0.35,0.33-0.45c0.13-0.1,0.29-0.17,0.47-0.22L526.01,493.24z M499.19,503.88l0,0.02
			l14.88,6.98l1.15-10.78L499.19,503.88z"/>
		<path class="st0" d="M530.57,465.28c0.32,0.05,0.58,0.16,0.78,0.3c0.2,0.15,0.36,0.32,0.47,0.51c0.11,0.2,0.18,0.41,0.21,0.63
			c0.03,0.22,0.02,0.44-0.02,0.66l-0.24,1.35c-0.07,0.43-0.18,0.79-0.33,1.09c-0.14,0.3-0.35,0.58-0.63,0.82
			c-0.28,0.25-0.64,0.48-1.09,0.7c-0.44,0.22-1.01,0.43-1.68,0.64l-19.1,6.3c-0.99,0.33-2.02,0.66-3.1,0.98
			c-1.08,0.32-2.12,0.62-3.12,0.88l-0.01,0.05c1.14,0.17,2.31,0.35,3.5,0.54c1.19,0.19,2.37,0.39,3.54,0.6l18.52,3.25
			c0.11,0.02,0.21,0.07,0.3,0.16c0.09,0.08,0.15,0.21,0.18,0.38c0.03,0.17,0.04,0.39,0.03,0.65c-0.01,0.26-0.04,0.6-0.12,1
			c-0.07,0.4-0.15,0.73-0.23,0.98s-0.17,0.45-0.25,0.59c-0.08,0.14-0.18,0.24-0.29,0.28c-0.12,0.05-0.23,0.06-0.34,0.04l-28.32-4.97
			c-0.63-0.11-1.05-0.37-1.26-0.78c-0.21-0.41-0.27-0.82-0.2-1.25l0.35-2.01c0.08-0.47,0.19-0.86,0.33-1.17
			c0.13-0.31,0.32-0.57,0.54-0.79c0.23-0.22,0.52-0.42,0.89-0.6c0.37-0.18,0.82-0.36,1.35-0.53l14.74-4.83
			c0.9-0.3,1.78-0.59,2.63-0.86c0.86-0.28,1.7-0.54,2.52-0.79s1.64-0.5,2.44-0.74c0.8-0.25,1.61-0.49,2.41-0.72l0-0.02
			c-1.26-0.19-2.56-0.4-3.91-0.63c-1.35-0.23-2.65-0.45-3.9-0.67l-16.65-2.92c-0.11-0.02-0.21-0.07-0.29-0.15
			c-0.08-0.08-0.14-0.21-0.19-0.38c-0.04-0.17-0.06-0.39-0.04-0.65c0.01-0.26,0.06-0.61,0.13-1.02c0.06-0.37,0.14-0.68,0.22-0.94
			c0.08-0.26,0.17-0.46,0.26-0.6c0.1-0.14,0.2-0.23,0.31-0.28c0.11-0.05,0.22-0.07,0.33-0.05L530.57,465.28z"/>
		<path class="st0" d="M512.31,423.92c0.3,0.08,0.55,0.16,0.76,0.25c0.21,0.09,0.37,0.19,0.48,0.3c0.11,0.11,0.18,0.23,0.22,0.34
			s0.04,0.23,0.01,0.34l-2.94,11.03l10.24,2.73l2.78-10.43c0.03-0.11,0.08-0.21,0.16-0.29c0.08-0.09,0.2-0.15,0.34-0.2
			c0.14-0.04,0.32-0.05,0.54-0.03c0.22,0.02,0.49,0.08,0.82,0.17c0.3,0.08,0.54,0.16,0.74,0.25c0.2,0.09,0.36,0.19,0.47,0.3
			c0.11,0.11,0.19,0.23,0.23,0.35c0.04,0.12,0.05,0.23,0.02,0.34l-2.78,10.43l12.54,3.34c0.11,0.03,0.21,0.09,0.29,0.18
			c0.09,0.09,0.13,0.22,0.15,0.39c0.01,0.17,0,0.38-0.02,0.64c-0.03,0.26-0.1,0.59-0.2,0.99c-0.1,0.37-0.2,0.68-0.31,0.94
			c-0.11,0.25-0.21,0.45-0.31,0.59c-0.1,0.14-0.2,0.23-0.32,0.26c-0.12,0.03-0.23,0.04-0.34,0.01L508,439.72
			c-0.61-0.16-0.99-0.43-1.14-0.82c-0.15-0.38-0.18-0.75-0.09-1.11l3.61-13.54c0.03-0.11,0.09-0.21,0.18-0.29
			c0.09-0.08,0.22-0.15,0.38-0.19c0.16-0.04,0.36-0.05,0.59-0.02C511.75,423.78,512.01,423.84,512.31,423.92z"/>
		<path class="st0" d="M543.12,421.63c0.12,0.04,0.22,0.1,0.29,0.19c0.07,0.09,0.11,0.22,0.12,0.39s-0.01,0.39-0.05,0.65
			c-0.04,0.27-0.12,0.59-0.24,0.97c-0.11,0.37-0.23,0.68-0.35,0.93c-0.12,0.25-0.23,0.44-0.33,0.58c-0.1,0.14-0.21,0.22-0.32,0.26
			c-0.11,0.03-0.23,0.03-0.35-0.01l-28.58-8.84c-0.12-0.04-0.22-0.11-0.29-0.2c-0.07-0.1-0.11-0.24-0.11-0.41
			c0-0.18,0.01-0.4,0.05-0.66c0.04-0.26,0.11-0.57,0.22-0.93c0.12-0.38,0.24-0.7,0.35-0.94c0.12-0.24,0.23-0.43,0.33-0.57
			c0.1-0.14,0.21-0.22,0.32-0.26c0.11-0.03,0.23-0.03,0.35,0.01L543.12,421.63z"/>
		<path class="st0" d="M552.51,394.45c0.12,0.04,0.22,0.1,0.29,0.18c0.07,0.08,0.12,0.2,0.12,0.38c0,0.17-0.03,0.4-0.09,0.68
			c-0.07,0.28-0.18,0.65-0.34,1.1c-0.14,0.39-0.27,0.71-0.39,0.95c-0.12,0.24-0.24,0.42-0.36,0.55c-0.12,0.13-0.26,0.21-0.41,0.25
			c-0.15,0.04-0.33,0.06-0.53,0.05l-7.88,0.22c-0.9,0.04-1.74,0.11-2.52,0.21c-0.78,0.1-1.49,0.31-2.14,0.6
			c-0.65,0.3-1.21,0.72-1.71,1.26c-0.49,0.54-0.9,1.26-1.22,2.15l-0.93,2.61l12.49,4.48c0.12,0.04,0.21,0.12,0.28,0.22
			c0.07,0.1,0.1,0.23,0.1,0.39c0,0.16-0.02,0.38-0.08,0.64c-0.05,0.26-0.14,0.58-0.28,0.96c-0.13,0.38-0.27,0.68-0.39,0.92
			c-0.13,0.24-0.25,0.42-0.35,0.55c-0.11,0.13-0.22,0.21-0.33,0.24c-0.11,0.03-0.23,0.02-0.35-0.02l-27.16-9.74
			c-0.59-0.21-0.95-0.51-1.07-0.91c-0.12-0.39-0.12-0.76,0-1.11l2.23-6.23c0.27-0.74,0.51-1.35,0.72-1.83
			c0.21-0.48,0.41-0.91,0.6-1.28c0.6-1.06,1.27-1.95,2.01-2.67c0.74-0.72,1.53-1.25,2.39-1.61c0.86-0.36,1.77-0.53,2.71-0.52
			c0.94,0.01,1.92,0.19,2.93,0.55c0.98,0.35,1.81,0.8,2.5,1.34c0.68,0.54,1.23,1.17,1.65,1.88c0.42,0.71,0.72,1.5,0.91,2.35
			c0.19,0.85,0.28,1.76,0.27,2.73c0.39-0.41,0.81-0.75,1.28-1.03c0.47-0.28,0.99-0.5,1.56-0.68c0.57-0.18,1.21-0.31,1.91-0.4
			c0.7-0.09,1.47-0.15,2.32-0.19l7.4-0.31c0.62-0.02,1.05-0.01,1.29,0C552.21,394.38,552.39,394.41,552.51,394.45z M529.8,392.93
			c-1.15-0.41-2.21-0.5-3.19-0.27c-0.98,0.23-1.86,0.89-2.64,1.97c-0.24,0.34-0.47,0.74-0.69,1.2c-0.22,0.46-0.46,1.07-0.74,1.85
			l-1.18,3.29l9.88,3.55l1.37-3.81c0.37-1.03,0.56-1.96,0.58-2.8c0.02-0.84-0.1-1.58-0.37-2.24c-0.27-0.66-0.66-1.21-1.18-1.67
			C531.13,393.54,530.51,393.18,529.8,392.93z"/>
		<path class="st0" d="M553.45,371.28c1.35,0.57,2.44,1.32,3.28,2.26c0.84,0.94,1.44,2,1.8,3.19c0.36,1.19,0.48,2.46,0.34,3.8
			c-0.13,1.35-0.49,2.71-1.07,4.08c-0.4,0.96-0.86,1.82-1.37,2.57c-0.51,0.75-1.02,1.4-1.53,1.94c-0.51,0.54-0.98,0.98-1.41,1.31
			c-0.44,0.33-0.78,0.54-1.03,0.64c-0.25,0.1-0.53,0.13-0.84,0.09c-0.31-0.03-0.69-0.15-1.15-0.34c-0.32-0.14-0.59-0.27-0.79-0.39
			c-0.2-0.12-0.36-0.24-0.46-0.35c-0.11-0.12-0.17-0.23-0.18-0.34c-0.01-0.11,0-0.23,0.05-0.34c0.09-0.21,0.34-0.45,0.75-0.72
			c0.41-0.27,0.89-0.64,1.43-1.11c0.55-0.47,1.12-1.06,1.74-1.79c0.61-0.73,1.15-1.64,1.61-2.73c0.35-0.83,0.56-1.63,0.63-2.41
			c0.07-0.78,0-1.51-0.2-2.17c-0.2-0.67-0.54-1.26-1.01-1.77c-0.48-0.52-1.1-0.93-1.85-1.25c-0.81-0.34-1.59-0.45-2.32-0.33
			c-0.74,0.13-1.45,0.4-2.14,0.82c-0.69,0.42-1.38,0.94-2.07,1.57c-0.69,0.62-1.39,1.26-2.11,1.92c-0.72,0.66-1.47,1.27-2.26,1.85
			c-0.78,0.58-1.61,1.04-2.49,1.38s-1.81,0.53-2.81,0.55c-0.99,0.02-2.08-0.21-3.24-0.7c-1.2-0.5-2.18-1.17-2.93-2.01
			c-0.75-0.83-1.29-1.77-1.6-2.82c-0.31-1.04-0.4-2.17-0.28-3.39c0.12-1.21,0.44-2.44,0.96-3.68c0.27-0.64,0.59-1.25,0.98-1.85
			c0.38-0.6,0.79-1.14,1.21-1.63c0.43-0.49,0.85-0.91,1.26-1.26c0.42-0.35,0.72-0.56,0.92-0.64c0.2-0.08,0.35-0.13,0.45-0.14
			c0.1-0.01,0.22,0,0.36,0.02c0.14,0.02,0.3,0.07,0.48,0.12c0.18,0.06,0.42,0.15,0.7,0.27c0.27,0.11,0.5,0.22,0.7,0.33
			c0.2,0.11,0.36,0.22,0.48,0.32c0.12,0.1,0.2,0.21,0.23,0.32c0.03,0.11,0.03,0.22-0.02,0.32c-0.07,0.16-0.28,0.37-0.63,0.64
			c-0.35,0.26-0.77,0.59-1.24,0.98c-0.47,0.39-0.96,0.89-1.46,1.49c-0.5,0.6-0.94,1.33-1.3,2.18c-0.34,0.8-0.52,1.54-0.56,2.22
			c-0.04,0.68,0.04,1.29,0.24,1.82c0.19,0.53,0.49,1,0.9,1.4c0.41,0.4,0.89,0.71,1.43,0.94c0.8,0.34,1.56,0.44,2.3,0.32
			c0.73-0.13,1.45-0.4,2.15-0.83c0.7-0.43,1.4-0.95,2.11-1.58c0.7-0.63,1.41-1.27,2.13-1.92c0.72-0.65,1.47-1.28,2.25-1.87
			c0.78-0.59,1.61-1.07,2.48-1.42c0.87-0.35,1.81-0.54,2.8-0.57C551.25,370.58,552.32,370.8,553.45,371.28z"/>
		<path class="st0" d="M545.75,339.61c0.27,0.13,0.51,0.26,0.7,0.39c0.19,0.13,0.33,0.25,0.42,0.38c0.09,0.13,0.14,0.25,0.16,0.37
			c0.01,0.12-0.01,0.24-0.06,0.36l-3.82,7.89l24.32,11.78c0.12,0.06,0.2,0.13,0.26,0.23c0.06,0.1,0.08,0.23,0.06,0.4
			c-0.02,0.17-0.07,0.38-0.15,0.64c-0.08,0.26-0.21,0.56-0.38,0.93c-0.17,0.35-0.33,0.63-0.49,0.86c-0.15,0.23-0.29,0.4-0.41,0.52
			c-0.12,0.12-0.24,0.19-0.35,0.2c-0.12,0.02-0.23,0-0.35-0.06l-24.32-11.78l-3.82,7.89c-0.06,0.12-0.14,0.21-0.24,0.27
			c-0.1,0.07-0.23,0.1-0.38,0.1c-0.15,0-0.34-0.03-0.56-0.1c-0.22-0.06-0.47-0.16-0.74-0.29c-0.28-0.13-0.51-0.27-0.7-0.41
			c-0.19-0.14-0.34-0.27-0.44-0.39c-0.1-0.12-0.16-0.24-0.17-0.36c-0.01-0.12,0.01-0.24,0.06-0.36l9.45-19.51
			c0.05-0.12,0.13-0.21,0.24-0.27c0.1-0.07,0.23-0.1,0.4-0.1c0.16,0,0.35,0.03,0.58,0.11C545.23,339.37,545.48,339.47,545.75,339.61
			z"/>
		<path class="st0" d="M562.31,310.28c0.26,0.15,0.48,0.3,0.66,0.44c0.18,0.14,0.31,0.28,0.38,0.42c0.08,0.14,0.12,0.27,0.12,0.39
			c0,0.12-0.03,0.23-0.08,0.33l-5.76,9.86l9.15,5.35l5.44-9.32c0.05-0.1,0.13-0.18,0.24-0.24c0.1-0.06,0.23-0.09,0.38-0.1
			c0.15,0,0.33,0.03,0.53,0.12c0.21,0.08,0.45,0.21,0.74,0.38c0.26,0.15,0.48,0.3,0.65,0.44c0.17,0.14,0.3,0.28,0.37,0.41
			c0.08,0.14,0.12,0.27,0.13,0.4c0.01,0.13-0.02,0.24-0.07,0.33l-5.44,9.32l11.21,6.55c0.1,0.06,0.17,0.14,0.23,0.25
			c0.06,0.11,0.07,0.25,0.04,0.41c-0.03,0.17-0.1,0.37-0.19,0.61c-0.09,0.24-0.25,0.54-0.46,0.9c-0.2,0.33-0.38,0.61-0.55,0.82
			c-0.17,0.22-0.32,0.38-0.45,0.49c-0.13,0.11-0.26,0.17-0.38,0.17c-0.12,0-0.23-0.02-0.33-0.08l-24.91-14.56
			c-0.54-0.32-0.83-0.68-0.88-1.09c-0.05-0.41,0.02-0.77,0.21-1.09l7.07-12.1c0.06-0.1,0.14-0.18,0.25-0.23
			c0.11-0.06,0.25-0.09,0.41-0.08c0.17,0,0.36,0.05,0.57,0.14C561.81,310,562.05,310.12,562.31,310.28z"/>
		<path class="st0" d="M594.18,294.24c1.57,1.05,2.82,2.22,3.75,3.51c0.92,1.29,1.53,2.64,1.81,4.07c0.28,1.43,0.23,2.9-0.15,4.42
			c-0.38,1.52-1.09,3.06-2.14,4.62c-0.96,1.43-2.03,2.59-3.23,3.49c-1.2,0.9-2.48,1.5-3.85,1.8c-1.37,0.3-2.81,0.27-4.33-0.09
			c-1.52-0.36-3.07-1.07-4.66-2.13l-16.07-10.75c-0.11-0.07-0.18-0.16-0.23-0.27c-0.04-0.11-0.04-0.24,0-0.41
			c0.04-0.17,0.12-0.37,0.23-0.6c0.11-0.24,0.28-0.53,0.51-0.88c0.22-0.32,0.41-0.58,0.6-0.79c0.18-0.2,0.34-0.35,0.47-0.45
			c0.13-0.1,0.26-0.14,0.37-0.14c0.12,0,0.23,0.04,0.33,0.11l15.65,10.47c1.2,0.8,2.35,1.36,3.44,1.66
			c1.09,0.31,2.12,0.38,3.08,0.22c0.96-0.16,1.86-0.52,2.68-1.1c0.82-0.58,1.56-1.36,2.21-2.33c0.67-1,1.12-1.99,1.35-2.97
			c0.23-0.98,0.23-1.93,0-2.87c-0.22-0.93-0.67-1.83-1.35-2.7c-0.68-0.87-1.59-1.69-2.75-2.47l-15.83-10.59
			c-0.11-0.07-0.18-0.16-0.23-0.27c-0.04-0.11-0.04-0.24,0-0.41c0.04-0.17,0.12-0.37,0.24-0.61c0.11-0.24,0.28-0.53,0.51-0.86
			c0.21-0.32,0.41-0.58,0.59-0.78c0.18-0.2,0.34-0.34,0.47-0.44c0.13-0.1,0.26-0.15,0.38-0.15c0.12-0.01,0.23,0.03,0.34,0.1
			L594.18,294.24z"/>
		<path class="st0" d="M596.8,261.09c0.24,0.18,0.44,0.36,0.6,0.52c0.16,0.16,0.27,0.31,0.34,0.45c0.06,0.14,0.09,0.27,0.08,0.39
			c-0.01,0.12-0.06,0.23-0.14,0.34l-5.32,6.97l21.49,16.38c0.1,0.08,0.17,0.17,0.21,0.28c0.04,0.11,0.03,0.25-0.02,0.41
			c-0.05,0.16-0.14,0.36-0.27,0.59c-0.13,0.23-0.32,0.51-0.56,0.83c-0.23,0.31-0.45,0.56-0.65,0.75c-0.2,0.19-0.37,0.33-0.51,0.43
			c-0.14,0.09-0.27,0.14-0.39,0.13c-0.12-0.01-0.22-0.05-0.33-0.13l-21.49-16.38l-5.31,6.97c-0.08,0.1-0.18,0.18-0.29,0.22
			c-0.12,0.04-0.25,0.05-0.39,0.02c-0.15-0.03-0.32-0.1-0.53-0.2c-0.2-0.11-0.43-0.25-0.67-0.44c-0.24-0.18-0.44-0.36-0.61-0.54
			c-0.16-0.17-0.28-0.33-0.35-0.47c-0.08-0.14-0.11-0.27-0.09-0.39c0.01-0.12,0.06-0.23,0.13-0.34l13.14-17.24
			c0.08-0.1,0.17-0.18,0.29-0.22c0.11-0.04,0.25-0.05,0.41-0.02c0.16,0.03,0.34,0.1,0.55,0.22
			C596.34,260.76,596.56,260.91,596.8,261.09z"/>
		<path class="st0" d="M626.82,257.54c1.12,0.94,1.94,1.99,2.46,3.14c0.52,1.15,0.78,2.34,0.77,3.58c-0.01,1.24-0.28,2.49-0.81,3.73
			c-0.53,1.25-1.27,2.44-2.24,3.58c-0.67,0.8-1.37,1.48-2.08,2.04c-0.71,0.57-1.39,1.03-2.04,1.4c-0.65,0.37-1.23,0.64-1.74,0.83
			c-0.51,0.19-0.9,0.29-1.17,0.3c-0.27,0.02-0.54-0.04-0.82-0.16c-0.29-0.12-0.62-0.35-1-0.67c-0.27-0.23-0.48-0.43-0.64-0.6
			c-0.15-0.17-0.27-0.33-0.34-0.48c-0.07-0.14-0.09-0.27-0.07-0.38s0.07-0.21,0.15-0.31c0.15-0.17,0.45-0.33,0.93-0.46
			c0.47-0.14,1.04-0.35,1.7-0.63c0.66-0.28,1.39-0.68,2.19-1.19c0.8-0.51,1.58-1.22,2.35-2.12c0.58-0.69,1.02-1.39,1.32-2.12
			c0.3-0.73,0.45-1.44,0.46-2.13c0.01-0.69-0.14-1.36-0.44-2c-0.31-0.64-0.77-1.22-1.39-1.75c-0.67-0.57-1.38-0.91-2.12-1
			c-0.74-0.1-1.5-0.05-2.29,0.15c-0.79,0.2-1.6,0.49-2.45,0.88c-0.84,0.39-1.71,0.79-2.59,1.2c-0.88,0.41-1.78,0.77-2.7,1.09
			c-0.92,0.32-1.85,0.51-2.79,0.57c-0.94,0.07-1.89-0.04-2.85-0.31c-0.96-0.27-1.92-0.82-2.89-1.64c-0.99-0.84-1.73-1.77-2.2-2.79
			c-0.47-1.02-0.7-2.07-0.68-3.16c0.02-1.09,0.26-2.19,0.74-3.32c0.48-1.12,1.15-2.2,2.02-3.23c0.45-0.53,0.94-1.02,1.48-1.47
			c0.55-0.46,1.09-0.85,1.64-1.2c0.55-0.34,1.08-0.62,1.58-0.82c0.5-0.21,0.86-0.32,1.07-0.34c0.22-0.02,0.37-0.02,0.47,0
			c0.1,0.02,0.21,0.06,0.34,0.13c0.13,0.06,0.26,0.15,0.42,0.26c0.16,0.11,0.35,0.27,0.59,0.46c0.22,0.19,0.41,0.36,0.57,0.53
			c0.16,0.16,0.28,0.31,0.36,0.45c0.08,0.13,0.13,0.26,0.12,0.37c0,0.11-0.04,0.21-0.11,0.3c-0.12,0.13-0.38,0.27-0.8,0.42
			c-0.41,0.14-0.91,0.33-1.47,0.57c-0.57,0.24-1.18,0.56-1.84,0.98c-0.66,0.42-1.29,0.99-1.89,1.69c-0.56,0.66-0.96,1.31-1.2,1.95
			c-0.24,0.64-0.34,1.25-0.32,1.81c0.02,0.57,0.17,1.1,0.44,1.6c0.27,0.5,0.63,0.94,1.09,1.33c0.66,0.56,1.36,0.89,2.1,0.99
			c0.74,0.1,1.5,0.05,2.3-0.15c0.8-0.2,1.62-0.49,2.48-0.88c0.86-0.39,1.73-0.79,2.61-1.2c0.88-0.41,1.79-0.78,2.71-1.11
			c0.92-0.33,1.85-0.54,2.79-0.62c0.94-0.08,1.89,0.02,2.85,0.29C624.93,256.21,625.88,256.75,626.82,257.54z"/>
		<path class="st0" d="M651.89,241.41c0.35,0.15,0.6,0.3,0.76,0.44c0.16,0.14,0.24,0.3,0.23,0.47c-0.01,0.17-0.1,0.37-0.28,0.61
			c-0.18,0.24-0.44,0.54-0.79,0.9c-0.34,0.36-0.62,0.64-0.85,0.84c-0.22,0.2-0.41,0.34-0.55,0.41c-0.15,0.07-0.28,0.1-0.4,0.09
			c-0.12-0.01-0.25-0.05-0.4-0.1l-7.35-3.28l-8.91,9.4l3.68,7.01c0.07,0.13,0.12,0.27,0.14,0.4c0.02,0.13,0,0.28-0.05,0.44
			c-0.05,0.16-0.17,0.35-0.33,0.58c-0.17,0.23-0.41,0.5-0.72,0.83c-0.32,0.34-0.6,0.6-0.83,0.79c-0.23,0.19-0.43,0.29-0.6,0.3
			c-0.17,0.01-0.32-0.06-0.47-0.22c-0.15-0.15-0.31-0.4-0.48-0.74l-13.82-27.5c-0.08-0.17-0.13-0.33-0.14-0.48
			c-0.01-0.15,0.03-0.32,0.12-0.51c0.09-0.19,0.24-0.41,0.44-0.65c0.2-0.24,0.46-0.54,0.79-0.89c0.35-0.37,0.66-0.67,0.9-0.9
			c0.25-0.23,0.47-0.4,0.66-0.5s0.37-0.16,0.53-0.16c0.17,0,0.33,0.04,0.51,0.11L651.89,241.41z M624.11,233.57l-0.02,0.02
			l7.58,14.58l7.45-7.87L624.11,233.57z"/>
		<path class="st0" d="M666.99,226.76c0.22,0.23,0.39,0.44,0.52,0.62c0.12,0.18,0.21,0.35,0.26,0.51c0.05,0.16,0.07,0.3,0.04,0.43
			c-0.03,0.12-0.09,0.24-0.2,0.34l-10.01,9.46c-0.27,0.25-0.61,0.4-1.02,0.45c-0.41,0.04-0.83-0.16-1.26-0.61l-19.81-20.98
			c-0.09-0.09-0.14-0.2-0.16-0.31c-0.02-0.11,0.01-0.25,0.09-0.4c0.08-0.15,0.2-0.34,0.37-0.55c0.17-0.22,0.39-0.46,0.68-0.72
			c0.29-0.27,0.55-0.49,0.77-0.64c0.22-0.15,0.41-0.26,0.56-0.33c0.15-0.07,0.29-0.09,0.4-0.07c0.11,0.03,0.22,0.09,0.3,0.18
			l18.51,19.59l8.12-7.67c0.11-0.1,0.22-0.16,0.35-0.18c0.13-0.02,0.26,0,0.41,0.04c0.15,0.05,0.31,0.15,0.48,0.29
			C666.57,226.34,666.77,226.52,666.99,226.76z"/>
		<path class="st0" d="M696.88,202.4c0.32,0.2,0.55,0.37,0.69,0.54c0.14,0.16,0.2,0.33,0.17,0.5c-0.03,0.17-0.15,0.36-0.36,0.57
			c-0.21,0.21-0.51,0.47-0.9,0.78c-0.39,0.31-0.71,0.55-0.95,0.72c-0.25,0.17-0.45,0.28-0.6,0.33c-0.15,0.05-0.29,0.06-0.41,0.03
			c-0.12-0.03-0.24-0.08-0.39-0.15l-6.83-4.24l-10.11,8.11l2.7,7.44c0.05,0.14,0.08,0.28,0.09,0.41c0,0.13-0.03,0.27-0.11,0.43
			c-0.07,0.15-0.21,0.33-0.41,0.53c-0.2,0.2-0.48,0.44-0.83,0.72c-0.36,0.29-0.67,0.52-0.93,0.67c-0.26,0.15-0.47,0.23-0.63,0.21
			c-0.17-0.01-0.31-0.1-0.44-0.28c-0.13-0.18-0.25-0.44-0.37-0.8l-9.97-29.12c-0.06-0.18-0.09-0.34-0.08-0.5
			c0.01-0.15,0.08-0.32,0.19-0.49c0.12-0.18,0.29-0.37,0.52-0.59c0.23-0.21,0.53-0.47,0.91-0.77c0.4-0.32,0.74-0.58,1.02-0.77
			c0.28-0.19,0.52-0.33,0.72-0.41c0.2-0.08,0.39-0.11,0.55-0.09c0.16,0.02,0.32,0.08,0.48,0.18L696.88,202.4z M670.43,190.87
			l-0.02,0.02l5.53,15.48l8.45-6.78L670.43,190.87z"/>
		<path class="st0" d="M710.28,183.99c0.85,1.19,1.38,2.41,1.6,3.65c0.22,1.24,0.17,2.46-0.14,3.66c-0.32,1.2-0.89,2.34-1.71,3.42
			c-0.82,1.08-1.84,2.05-3.06,2.91c-0.85,0.61-1.69,1.09-2.52,1.47c-0.83,0.37-1.6,0.66-2.32,0.85c-0.72,0.2-1.35,0.32-1.89,0.37
			c-0.54,0.05-0.95,0.05-1.21,0c-0.26-0.05-0.52-0.17-0.76-0.36c-0.24-0.19-0.51-0.49-0.8-0.89c-0.2-0.29-0.36-0.54-0.47-0.74
			c-0.11-0.21-0.18-0.39-0.21-0.54c-0.03-0.15-0.02-0.28,0.02-0.39c0.05-0.1,0.12-0.19,0.22-0.26c0.18-0.13,0.52-0.2,1.01-0.22
			c0.49-0.02,1.09-0.08,1.8-0.19c0.71-0.11,1.52-0.31,2.42-0.61c0.9-0.3,1.84-0.79,2.8-1.48c0.73-0.52,1.33-1.1,1.8-1.72
			c0.47-0.63,0.8-1.28,0.98-1.95c0.18-0.67,0.21-1.35,0.07-2.04c-0.14-0.69-0.44-1.37-0.92-2.04c-0.51-0.72-1.11-1.22-1.8-1.49
			c-0.69-0.28-1.44-0.42-2.25-0.42c-0.81,0-1.67,0.08-2.59,0.24c-0.92,0.17-1.85,0.34-2.81,0.52c-0.96,0.18-1.92,0.31-2.89,0.39
			c-0.97,0.08-1.92,0.03-2.85-0.13c-0.93-0.17-1.82-0.5-2.68-1.01c-0.86-0.5-1.66-1.27-2.39-2.3c-0.75-1.06-1.23-2.14-1.44-3.25
			c-0.2-1.11-0.17-2.19,0.12-3.24c0.29-1.05,0.8-2.06,1.54-3.03c0.74-0.97,1.66-1.84,2.76-2.63c0.56-0.4,1.16-0.75,1.8-1.06
			c0.64-0.31,1.27-0.56,1.89-0.75c0.62-0.19,1.2-0.33,1.74-0.41c0.54-0.08,0.91-0.1,1.12-0.06c0.21,0.04,0.37,0.07,0.46,0.12
			c0.09,0.04,0.19,0.11,0.29,0.2c0.11,0.09,0.22,0.21,0.35,0.36c0.13,0.15,0.28,0.35,0.45,0.59c0.17,0.24,0.31,0.45,0.42,0.65
			c0.11,0.2,0.19,0.37,0.24,0.53c0.05,0.15,0.06,0.28,0.03,0.39c-0.03,0.11-0.09,0.2-0.18,0.26c-0.14,0.1-0.44,0.17-0.87,0.21
			c-0.44,0.04-0.96,0.1-1.57,0.19c-0.61,0.09-1.28,0.25-2.03,0.5c-0.74,0.24-1.49,0.63-2.25,1.17c-0.71,0.5-1.25,1.04-1.64,1.6
			s-0.64,1.12-0.76,1.68c-0.12,0.56-0.11,1.11,0.03,1.66c0.14,0.55,0.38,1.07,0.72,1.55c0.5,0.71,1.1,1.2,1.79,1.48
			c0.69,0.28,1.45,0.42,2.27,0.43c0.82,0.01,1.7-0.07,2.62-0.24c0.93-0.17,1.87-0.34,2.82-0.52c0.96-0.18,1.92-0.31,2.9-0.41
			c0.98-0.09,1.93-0.06,2.86,0.09c0.93,0.16,1.82,0.49,2.68,0.99C708.77,182.23,709.56,182.98,710.28,183.99z"/>
		<path class="st0" d="M729.38,171.72c0.79,1.23,1.26,2.47,1.42,3.72c0.16,1.25,0.05,2.47-0.33,3.65c-0.38,1.18-1.01,2.29-1.88,3.32
			c-0.88,1.03-1.94,1.95-3.2,2.75c-0.88,0.56-1.74,1.01-2.59,1.34c-0.85,0.33-1.63,0.57-2.36,0.73c-0.73,0.16-1.36,0.25-1.91,0.27
			c-0.55,0.03-0.95,0.01-1.21-0.06c-0.26-0.06-0.51-0.2-0.74-0.4c-0.23-0.2-0.48-0.51-0.75-0.93c-0.19-0.3-0.33-0.55-0.43-0.77
			c-0.1-0.21-0.16-0.4-0.18-0.55c-0.02-0.16-0.01-0.28,0.04-0.38c0.05-0.1,0.13-0.18,0.24-0.25c0.19-0.12,0.53-0.18,1.02-0.17
			c0.49,0.01,1.09-0.02,1.81-0.1c0.72-0.07,1.53-0.24,2.45-0.49c0.92-0.25,1.88-0.69,2.88-1.33c0.76-0.48,1.39-1.03,1.89-1.63
			c0.5-0.6,0.86-1.24,1.08-1.9c0.22-0.66,0.27-1.34,0.17-2.04c-0.1-0.7-0.37-1.39-0.81-2.08c-0.47-0.74-1.05-1.27-1.72-1.58
			c-0.67-0.31-1.42-0.49-2.23-0.54c-0.81-0.05-1.68-0.01-2.6,0.11c-0.92,0.12-1.87,0.25-2.83,0.38c-0.96,0.13-1.93,0.21-2.9,0.24
			c-0.97,0.03-1.92-0.06-2.84-0.28c-0.92-0.22-1.79-0.6-2.62-1.14c-0.83-0.55-1.59-1.35-2.27-2.42c-0.7-1.1-1.12-2.2-1.27-3.32
			c-0.15-1.11-0.05-2.19,0.29-3.22c0.34-1.03,0.9-2.02,1.69-2.95c0.79-0.93,1.75-1.76,2.89-2.48c0.58-0.37,1.2-0.69,1.85-0.97
			c0.65-0.27,1.3-0.49,1.93-0.66c0.63-0.16,1.21-0.27,1.75-0.32c0.54-0.05,0.92-0.05,1.13,0c0.21,0.05,0.36,0.09,0.45,0.14
			c0.09,0.05,0.18,0.12,0.28,0.22c0.1,0.1,0.21,0.22,0.33,0.38c0.12,0.15,0.26,0.36,0.42,0.62c0.15,0.24,0.28,0.47,0.38,0.67
			s0.17,0.38,0.21,0.54c0.04,0.15,0.04,0.29,0.01,0.39c-0.04,0.11-0.1,0.19-0.2,0.25c-0.15,0.1-0.44,0.15-0.88,0.16
			c-0.44,0.01-0.96,0.05-1.58,0.1c-0.61,0.06-1.29,0.19-2.05,0.39c-0.75,0.2-1.53,0.56-2.31,1.06c-0.73,0.47-1.31,0.97-1.72,1.51
			c-0.42,0.54-0.7,1.09-0.84,1.64c-0.15,0.55-0.17,1.1-0.06,1.66c0.11,0.56,0.32,1.09,0.64,1.59c0.47,0.73,1.04,1.25,1.71,1.57
			c0.67,0.31,1.42,0.49,2.24,0.54c0.82,0.05,1.7,0.01,2.63-0.11c0.93-0.12,1.88-0.24,2.85-0.37c0.96-0.13,1.94-0.22,2.92-0.26
			c0.98-0.04,1.93,0.04,2.85,0.24c0.92,0.2,1.8,0.58,2.63,1.12C727.97,169.88,728.72,170.67,729.38,171.72z"/>
		<path class="st0" d="M753.83,149.68c1.22,2.21,2.06,4.34,2.51,6.4c0.46,2.06,0.51,3.99,0.17,5.81c-0.35,1.81-1.11,3.49-2.31,5.01
			c-1.19,1.53-2.83,2.87-4.91,4.02c-2.05,1.13-4,1.81-5.83,2.02c-1.83,0.22-3.56,0.01-5.18-0.62c-1.62-0.63-3.15-1.67-4.58-3.14
			c-1.44-1.46-2.77-3.32-4.01-5.57c-1.19-2.15-2.01-4.25-2.46-6.29c-0.45-2.04-0.49-3.97-0.13-5.77c0.36-1.8,1.14-3.47,2.33-5
			c1.19-1.53,2.83-2.87,4.91-4.02c2.01-1.11,3.93-1.77,5.75-1.99c1.82-0.22,3.55-0.02,5.18,0.59c1.63,0.61,3.16,1.64,4.59,3.08
			C751.29,145.65,752.62,147.47,753.83,149.68z M750.13,152.05c-0.85-1.55-1.78-2.91-2.79-4.08c-1.01-1.18-2.1-2.08-3.28-2.7
			c-1.18-0.62-2.45-0.92-3.82-0.88c-1.37,0.04-2.84,0.5-4.41,1.36c-1.57,0.87-2.73,1.89-3.47,3.07c-0.74,1.18-1.17,2.45-1.3,3.8
			c-0.13,1.35,0.03,2.76,0.47,4.24c0.44,1.47,1.06,2.93,1.86,4.38c0.88,1.6,1.83,3,2.85,4.21c1.01,1.2,2.1,2.12,3.27,2.74
			c1.17,0.63,2.44,0.92,3.79,0.88c1.36-0.04,2.84-0.51,4.44-1.39c1.59-0.88,2.76-1.91,3.51-3.09c0.75-1.19,1.18-2.46,1.29-3.83
			c0.1-1.37-0.07-2.79-0.52-4.27C751.58,155,750.95,153.53,750.13,152.05z"/>
		<path class="st0" d="M783.99,148.22c0.11,0.23,0.2,0.44,0.26,0.62c0.07,0.18,0.12,0.35,0.14,0.49c0.03,0.15,0.03,0.29,0.02,0.42
			c-0.01,0.13-0.05,0.3-0.13,0.51c-0.08,0.21-0.28,0.58-0.6,1.09c-0.33,0.52-0.77,1.08-1.33,1.69c-0.56,0.61-1.24,1.22-2.04,1.83
			c-0.8,0.62-1.74,1.17-2.8,1.67c-1.83,0.86-3.63,1.33-5.39,1.41c-1.76,0.08-3.44-0.23-5.04-0.94c-1.6-0.7-3.09-1.8-4.47-3.29
			c-1.38-1.49-2.61-3.38-3.68-5.66c-1.1-2.34-1.77-4.57-2.03-6.68c-0.25-2.11-0.13-4.06,0.36-5.85c0.49-1.78,1.35-3.36,2.55-4.74
			c1.2-1.38,2.73-2.5,4.58-3.37c0.81-0.38,1.64-0.68,2.48-0.88c0.84-0.21,1.65-0.35,2.41-0.42c0.76-0.07,1.47-0.08,2.12-0.01
			c0.65,0.07,1.12,0.15,1.41,0.26c0.29,0.11,0.48,0.2,0.59,0.27c0.11,0.07,0.21,0.17,0.31,0.29c0.1,0.12,0.21,0.27,0.32,0.45
			c0.11,0.18,0.23,0.4,0.35,0.66c0.13,0.29,0.24,0.54,0.3,0.76c0.07,0.22,0.1,0.41,0.11,0.57c0.01,0.17-0.01,0.3-0.06,0.4
			c-0.05,0.1-0.13,0.18-0.25,0.24c-0.21,0.1-0.56,0.09-1.05-0.02c-0.5-0.11-1.12-0.2-1.86-0.28c-0.74-0.07-1.58-0.06-2.54,0.05
			c-0.96,0.1-2.02,0.42-3.17,0.97c-1.26,0.59-2.28,1.38-3.08,2.36c-0.8,0.99-1.33,2.14-1.61,3.45c-0.28,1.32-0.29,2.77-0.03,4.36
			c0.25,1.59,0.8,3.29,1.65,5.09c0.84,1.79,1.77,3.28,2.8,4.47c1.03,1.19,2.12,2.08,3.28,2.67c1.16,0.59,2.37,0.87,3.64,0.85
			c1.27-0.02,2.58-0.34,3.91-0.96c1.12-0.53,2.04-1.13,2.75-1.8c0.71-0.67,1.28-1.31,1.71-1.93c0.43-0.62,0.77-1.16,1.02-1.61
			c0.25-0.45,0.48-0.73,0.7-0.83c0.1-0.05,0.2-0.07,0.29-0.06c0.09,0.01,0.19,0.07,0.3,0.17c0.1,0.1,0.21,0.26,0.34,0.47
			C783.69,147.61,783.83,147.88,783.99,148.22z"/>
		<path class="st0" d="M794.2,148.17c0.05,0.12,0.06,0.23,0.04,0.35s-0.1,0.23-0.22,0.34c-0.13,0.11-0.31,0.24-0.53,0.38
			c-0.23,0.14-0.53,0.29-0.9,0.44c-0.35,0.15-0.67,0.26-0.93,0.33c-0.27,0.07-0.48,0.11-0.66,0.12c-0.17,0.01-0.31-0.02-0.4-0.08
			c-0.09-0.06-0.17-0.15-0.22-0.27l-11.49-27.62c-0.05-0.12-0.06-0.24-0.03-0.35c0.03-0.12,0.11-0.23,0.25-0.35
			c0.13-0.12,0.32-0.25,0.55-0.39c0.23-0.14,0.51-0.28,0.85-0.42c0.37-0.15,0.69-0.26,0.95-0.33c0.26-0.07,0.48-0.1,0.65-0.11
			c0.17-0.01,0.3,0.02,0.4,0.08c0.1,0.06,0.17,0.16,0.22,0.28L794.2,148.17z"/>
		<path class="st0" d="M823.21,136.35c0.24,0.29,0.4,0.53,0.48,0.73c0.08,0.2,0.08,0.38,0,0.53c-0.08,0.15-0.26,0.29-0.53,0.42
			c-0.27,0.13-0.64,0.28-1.1,0.45c-0.47,0.17-0.85,0.29-1.13,0.37c-0.29,0.08-0.51,0.12-0.68,0.12c-0.16,0-0.29-0.03-0.39-0.1
			c-0.1-0.07-0.21-0.16-0.32-0.27l-5.1-6.22l-12.18,4.42l0.16,7.91c0,0.15-0.01,0.29-0.05,0.42c-0.04,0.13-0.12,0.25-0.24,0.37
			c-0.12,0.12-0.31,0.24-0.56,0.37c-0.25,0.13-0.59,0.27-1.01,0.42c-0.44,0.16-0.8,0.27-1.1,0.33c-0.29,0.06-0.52,0.06-0.67,0
			c-0.15-0.06-0.26-0.2-0.33-0.41c-0.07-0.21-0.1-0.5-0.1-0.87l-0.06-30.78c0-0.19,0.03-0.35,0.09-0.49
			c0.06-0.14,0.17-0.28,0.34-0.41c0.17-0.13,0.39-0.26,0.68-0.39c0.29-0.13,0.66-0.28,1.11-0.44c0.48-0.18,0.89-0.31,1.21-0.4
			c0.33-0.09,0.6-0.14,0.82-0.16c0.22-0.01,0.4,0.02,0.55,0.1c0.15,0.07,0.28,0.18,0.4,0.33L823.21,136.35z M801.87,116.91
			l-0.02,0.01l0.25,16.43l10.19-3.7L801.87,116.91z"/>
		<path class="st0" d="M834.68,103.73c0.09,0.29,0.15,0.55,0.19,0.77c0.04,0.22,0.04,0.41,0.01,0.56c-0.03,0.15-0.08,0.27-0.16,0.37
			c-0.08,0.09-0.18,0.16-0.31,0.2l-8.38,2.57l7.93,25.83c0.04,0.12,0.04,0.24,0.01,0.35c-0.03,0.11-0.12,0.22-0.26,0.32
			c-0.14,0.1-0.33,0.21-0.57,0.33c-0.24,0.12-0.56,0.23-0.94,0.35c-0.37,0.11-0.69,0.19-0.96,0.23c-0.27,0.04-0.49,0.06-0.66,0.05
			c-0.17-0.01-0.3-0.05-0.39-0.12c-0.09-0.07-0.15-0.17-0.19-0.29l-7.93-25.83l-8.38,2.57c-0.12,0.04-0.24,0.04-0.36,0.01
			c-0.12-0.03-0.23-0.1-0.33-0.21c-0.1-0.11-0.2-0.27-0.31-0.47c-0.1-0.2-0.2-0.45-0.29-0.74c-0.09-0.29-0.15-0.56-0.18-0.79
			c-0.03-0.24-0.04-0.43-0.02-0.59c0.02-0.16,0.07-0.28,0.15-0.37c0.08-0.09,0.18-0.16,0.31-0.2l20.72-6.36
			c0.12-0.04,0.24-0.04,0.36-0.01c0.12,0.03,0.23,0.11,0.34,0.22c0.11,0.12,0.22,0.28,0.32,0.49
			C834.5,103.19,834.6,103.44,834.68,103.73z"/>
		<path class="st0" d="M851.24,129.2c0.03,0.13,0.03,0.24,0,0.35c-0.04,0.11-0.13,0.21-0.27,0.31c-0.14,0.09-0.33,0.2-0.58,0.3
			c-0.24,0.11-0.56,0.21-0.95,0.31c-0.37,0.1-0.7,0.16-0.97,0.19c-0.28,0.03-0.5,0.04-0.66,0.02c-0.17-0.01-0.3-0.06-0.39-0.14
			c-0.09-0.08-0.15-0.18-0.18-0.3l-7.61-28.93c-0.03-0.12-0.03-0.24,0.02-0.35c0.04-0.11,0.14-0.22,0.29-0.31
			c0.15-0.1,0.34-0.2,0.59-0.3c0.25-0.11,0.55-0.21,0.91-0.3c0.39-0.1,0.71-0.17,0.98-0.2c0.27-0.03,0.48-0.04,0.65-0.02
			c0.17,0.01,0.3,0.06,0.39,0.14c0.09,0.08,0.15,0.18,0.18,0.3L851.24,129.2z"/>
		<path class="st0" d="M881.32,106.78c0.52,2.47,0.69,4.75,0.52,6.85c-0.17,2.1-0.68,3.97-1.54,5.6c-0.86,1.63-2.09,3.01-3.68,4.12
			c-1.59,1.11-3.55,1.91-5.87,2.4c-2.3,0.48-4.35,0.56-6.17,0.22c-1.82-0.33-3.41-1.04-4.77-2.11c-1.37-1.07-2.52-2.52-3.46-4.34
			c-0.94-1.82-1.67-3.99-2.2-6.5c-0.5-2.4-0.67-4.65-0.5-6.74c0.17-2.09,0.69-3.94,1.57-5.56c0.87-1.62,2.11-2.98,3.69-4.1
			c1.59-1.11,3.55-1.91,5.87-2.4c2.25-0.47,4.27-0.54,6.08-0.22c1.81,0.33,3.4,1.02,4.78,2.09c1.38,1.06,2.54,2.49,3.48,4.29
			C880.07,102.18,880.8,104.31,881.32,106.78z M877.09,107.96c-0.36-1.73-0.85-3.3-1.47-4.73c-0.62-1.42-1.4-2.6-2.34-3.54
			c-0.94-0.94-2.08-1.59-3.4-1.96c-1.32-0.36-2.86-0.36-4.62,0.01c-1.76,0.37-3.16,1.01-4.22,1.92c-1.06,0.91-1.84,1.99-2.35,3.25
			c-0.52,1.26-0.78,2.65-0.79,4.19c-0.01,1.54,0.15,3.11,0.49,4.73c0.38,1.79,0.87,3.41,1.49,4.86c0.61,1.45,1.39,2.64,2.33,3.59
			c0.93,0.94,2.06,1.6,3.37,1.95c1.31,0.36,2.86,0.35,4.65-0.03c1.77-0.37,3.2-1.02,4.26-1.93c1.07-0.91,1.86-2.01,2.36-3.29
			c0.5-1.28,0.75-2.69,0.76-4.23C877.6,111.21,877.43,109.61,877.09,107.96z"/>
		<path class="st0" d="M913.59,116.59c0.04,0.32,0.03,0.6-0.05,0.83c-0.08,0.24-0.19,0.44-0.35,0.61c-0.15,0.17-0.33,0.3-0.54,0.39
			c-0.21,0.09-0.41,0.15-0.63,0.18l-1.36,0.18c-0.43,0.06-0.81,0.06-1.14,0.02c-0.33-0.05-0.66-0.16-0.98-0.36
			c-0.32-0.19-0.65-0.47-0.99-0.82c-0.34-0.36-0.72-0.83-1.12-1.4l-11.8-16.29c-0.61-0.84-1.24-1.72-1.88-2.65
			c-0.64-0.93-1.23-1.83-1.79-2.71l-0.05,0.01c0.19,1.14,0.37,2.31,0.55,3.5c0.18,1.19,0.35,2.38,0.51,3.55l2.53,18.64
			c0.01,0.11,0,0.22-0.06,0.34c-0.05,0.11-0.16,0.21-0.31,0.28c-0.15,0.08-0.35,0.15-0.61,0.23c-0.25,0.07-0.58,0.14-0.99,0.2
			c-0.4,0.05-0.74,0.08-1,0.07c-0.26,0-0.48-0.02-0.64-0.06c-0.16-0.04-0.28-0.1-0.36-0.19c-0.08-0.09-0.13-0.2-0.14-0.31
			l-3.86-28.49c-0.09-0.63,0.03-1.11,0.36-1.43c0.33-0.32,0.7-0.51,1.13-0.57l2.02-0.27c0.48-0.06,0.88-0.08,1.21-0.04
			c0.33,0.04,0.64,0.13,0.92,0.28c0.28,0.15,0.56,0.37,0.84,0.66c0.28,0.3,0.59,0.67,0.92,1.13l9.08,12.57
			c0.56,0.77,1.1,1.52,1.62,2.25s1.03,1.45,1.52,2.16c0.49,0.71,0.97,1.41,1.45,2.1c0.48,0.69,0.95,1.38,1.42,2.08l0.02,0
			c-0.2-1.25-0.4-2.56-0.59-3.92c-0.19-1.36-0.37-2.67-0.54-3.92l-2.27-16.75c-0.01-0.11,0.01-0.22,0.06-0.32
			c0.05-0.1,0.16-0.2,0.31-0.3c0.15-0.09,0.35-0.17,0.61-0.24c0.26-0.07,0.59-0.13,1.01-0.19c0.37-0.05,0.69-0.08,0.96-0.08
			c0.27,0,0.49,0.02,0.65,0.07c0.16,0.05,0.28,0.12,0.36,0.21c0.08,0.09,0.13,0.19,0.14,0.3L913.59,116.59z"/>
	</g>
	<polygon class="st0" points="958.61,81.64 974.12,69.96 973.96,89.37 989.87,100.51 971.35,106.36 965.68,124.93 954.39,109.13 
		934.98,109.47 946.52,93.85 940.19,75.49 	"/>
	<polygon class="st5" points="1322.32,825.32 1321.86,942.81 1321.86,825.32 	"/>
	<g>
		<polygon points="641.14,986.37 639,986.37 641.19,988.08 641.14,986.37 		"/>
	</g>
	<g>
		<path class="st6" d="M641.14,986.21v0.16H639l-50.42-39.39l0.08-0.03c1.18-0.41,13.99-4.87,37.67-10.79
			c4.13-1.05,8.58-2.12,13.37-3.24L641.14,986.21z"/>
		<polygon class="st7" points="429.17,986.37 510.14,905.4 430.04,825.32 588.58,825.32 588.58,946.98 639,986.37 		"/>
		<path class="st7" d="M1322.48,784.22l-0.16,41.1h-0.46v117.49l-0.02,4.18c-17.33-3.7-34.39-7.12-51.2-10.26
			c-315.88-59.35-536.71-25.62-630.95-3.8c-4.78,1.12-9.24,2.19-13.37,3.24c-23.67,5.92-36.48,10.37-37.67,10.79l-0.08,0.03V784.22
			C588.58,784.22,863.04,672.42,1322.48,784.22z"/>
		<path class="st6" d="M1321.84,946.98l-50.41,39.39h-2.14v-0.16l1.35-49.49C1287.45,939.86,1304.51,943.28,1321.84,946.98z"/>
		<polygon class="st7" points="1481.27,986.37 1271.44,986.37 1321.84,946.98 1321.86,946.98 1321.86,825.32 1480.4,825.32 
			1400.3,905.4 		"/>
	</g>
	<g>
		<polygon points="641.14,986.21 641.14,986.37 641.19,986.37 641.14,986.21 		"/>
	</g>
	<rect x="786.9" y="813.81" class="st8" width="10.23" height="0"/>
	<g>
		<g>
			<path class="st0" d="M793.73,802.37l-0.32-3.37c5.06-0.34,9.56-0.71,13.53-1.09c3.66-0.35,7.6-0.8,11.82-1.34l0.26,2.66
				c-1.18,0.51-2.3,1.07-3.36,1.71c-0.06,2.83,0,5.23,0.19,7.2c0.14,1.41,0.57,4.2,1.3,8.35c-5.3,2.5-9.76,4.28-13.39,5.34
				c-3.63,1.05-7.43,1.77-11.39,2.15c-10.69,1.03-19.33-0.95-25.92-5.92c-6.59-4.97-10.3-11.88-11.15-20.72
				c-0.87-9.09,1.52-16.65,7.17-22.7c5.65-6.05,14.26-9.63,25.81-10.74c4.07-0.39,8.01-0.44,11.81-0.17
				c3.8,0.28,7.45,0.91,10.96,1.88l0.43,0.59c-0.47,3.59-0.64,8.03-0.53,13.3l-3.49,0.33c-0.28-2.63-0.68-4.94-1.21-6.93
				c-1.97-1.88-4.4-3.2-7.28-3.96c-2.88-0.76-6.22-0.96-10.02-0.59c-7.12,0.68-12.58,3.39-16.39,8.12
				c-3.81,4.73-5.35,10.85-4.63,18.37c0.77,8.01,3.61,14.25,8.53,18.72c4.92,4.47,10.63,6.39,17.14,5.76
				c3.46-0.33,7.07-1.53,10.81-3.59c0.02-2.15-0.07-4.19-0.25-6.1c-0.41-4.27-0.88-6.6-1.43-6.99S799.19,802.16,793.73,802.37z"/>
			<path class="st0" d="M859.58,819.02c-10.25,0.55-18.25-1.67-23.97-6.65c-5.73-4.98-8.84-12.08-9.33-21.3
				c-0.34-6.45,0.68-12,3.09-16.66c2.4-4.66,5.88-8.32,10.43-10.99c4.55-2.67,10.51-4.2,17.88-4.59c7.09-0.38,12.94,0.48,17.57,2.56
				s8.26,5.12,10.92,9.12c2.65,4,4.14,9,4.46,15c0.35,6.5-0.69,12.19-3.11,17.07c-2.42,4.88-5.98,8.75-10.69,11.6
				C872.1,817.05,866.36,818.66,859.58,819.02z M860.92,814.43c5.59-0.3,9.93-2.6,13.03-6.91c3.1-4.31,4.43-10.67,3.98-19.1
				c-0.47-8.85-2.74-15.53-6.79-20.06c-3.29-3.65-8.14-5.3-14.56-4.96c-6,0.32-10.55,2.56-13.63,6.71
				c-3.08,4.15-4.4,10.36-3.96,18.62c0.32,5.95,1.49,10.95,3.51,14.98c2.03,4.03,4.48,6.89,7.37,8.56
				C852.77,813.95,856.45,814.67,860.92,814.43z"/>
			<path class="st0" d="M900.74,816.36l-0.04-2.17c1.52-0.75,2.95-1.62,4.3-2.62c0.23-7.55,0.28-15.41,0.13-23.59
				c-0.11-6.43-0.29-12.49-0.52-18.19c-0.15-4.06-0.39-6.39-0.71-7c-0.15-0.36-0.44-0.62-0.87-0.8c-0.44-0.17-2.46-0.38-6.09-0.63
				l-0.06-3.5c5.37,0.05,10.36,0.03,14.95-0.05c4.45-0.08,8.67-0.22,12.64-0.43l0.06,3.51c-3.82,0.32-6.01,0.69-6.58,1.12
				c-0.36,0.26-0.6,0.77-0.74,1.54c-0.14,0.77-0.18,5.27-0.12,13.51l0.1,20.33c0.07,3.81,0.24,8.22,0.52,13.22
				c3.63,0.13,6.32,0.18,8.07,0.15c5.24-0.09,9.64-0.58,13.2-1.48c0.69-2.52,1.37-5.52,2.01-9.01l3.67-0.06
				c-0.56,4.07-1.03,9.11-1.41,15.14c-2.64,0.24-5.07,0.38-7.29,0.42l-15.1,0.07l-6.76,0.02C911,815.86,906.54,816.04,900.74,816.36
				z"/>
			<path class="st0" d="M952.69,815.49l0.04-2.17c1.94-1.08,3.32-1.89,4.14-2.43c0.48-4.89,0.84-14.04,1.08-27.47
				c0.1-5.81,0.13-10.67,0.07-14.58c-0.05-3.91-0.2-6.14-0.44-6.7c-0.11-0.28-0.28-0.49-0.53-0.64c-0.41-0.23-2.45-0.6-6.12-1.11
				l0.06-3.51c4.2,0.22,9.03,0.37,14.48,0.47l20.58,0.16c7.49,0.13,13.15,1.18,17,3.14s6.88,4.91,9.09,8.85
				c2.21,3.94,3.27,8.69,3.17,14.25c-0.13,7.15-2.02,13.28-5.67,18.39c-3.66,5.11-8.06,8.72-13.22,10.83
				c-5.16,2.11-10.65,3.11-16.46,3l-15.81-0.58C961.6,815.36,957.79,815.39,952.69,815.49z M969.69,810.62
				c2.33,0.46,4.72,0.71,7.17,0.75c6.2,0.11,10.95-0.69,14.24-2.41c3.29-1.72,5.98-4.59,8.07-8.59c2.09-4.01,3.19-8.96,3.29-14.85
				c0.14-7.76-1.76-13.7-5.69-17.83c-3.47-3.68-9.21-5.59-17.22-5.73c-1.73-0.03-4.72,0.05-8.98,0.26l-0.8,25.99
				C969.56,799.14,969.54,806.61,969.69,810.62z"/>
			<path class="st0" d="M1023.21,817.12l0.12-2.25c1.51-0.59,2.9-1.29,4.17-2.12c0.79-4.3,1.56-13.4,2.31-27.3
				c0.51-9.48,0.75-15.76,0.72-18.86c0-1.64-0.22-2.69-0.69-3.15c-0.46-0.46-2.51-0.93-6.13-1.44l0.19-3.5
				c6.54,0.6,11.71,1.01,15.51,1.21l22.97,0.86c2.42,0.13,4.59,0.35,6.52,0.65l0.27,0.48c-0.78,3.02-1.44,7.07-1.99,12.13
				l-3.29-0.18c0.08-4.07,0.04-6.24-0.13-6.53c-0.17-0.29-0.78-0.59-1.85-0.89c-2.28-0.62-5.8-1.06-10.55-1.32
				c-2.33-0.13-5.06-0.18-8.19-0.15c-0.82,8.57-1.4,15.39-1.73,20.47c2.96,0.36,5.75,0.6,8.36,0.74c3.86,0.21,6.19,0.21,6.98,0
				c0.48-0.14,0.84-0.53,1.07-1.15c0.19-0.49,0.48-2.23,0.87-5.22l3.58,0.19c-0.39,4.7-0.63,7.76-0.7,9.18l-0.3,9.41l-3.58-0.19
				c0-3.67-0.13-5.79-0.41-6.37c-0.15-0.34-0.51-0.6-1.09-0.77c-1.37-0.38-4.49-0.7-9.35-0.96c-1.53-0.08-3.33-0.08-5.39,0
				c-0.13,1.46-0.24,2.96-0.32,4.48c-0.43,7.92-0.62,14.02-0.57,18.3l8.26,0.57c4.71,0.25,9.02,0.23,12.95-0.06
				c0.83-2.53,1.66-5.41,2.47-8.65l3.46,0.19c-0.91,4.91-1.54,9.65-1.89,14.2c-2.54,0.06-4.98,0.02-7.31-0.1
				c-1.53-0.08-4.54-0.29-9.04-0.63c-4.19-0.32-8.05-0.58-11.58-0.77C1033.26,817.37,1028.36,817.2,1023.21,817.12z"/>
			<path class="st0" d="M1071.95,819.66l0.32-3.49c3.39,0.17,5.4,0.13,6.01-0.13c0.41-0.19,0.73-0.52,0.97-1
				c0.36-0.64,0.77-2.96,1.21-6.97c0.75-6.64,1.28-11.65,1.59-15.03l1.51-17.59c0.42-4.66,0.51-7.36,0.28-8.11
				c-0.13-0.43-0.36-0.76-0.7-0.99c-0.52-0.38-2.59-0.89-6.2-1.53l0.32-3.49c4.32,0.53,7.52,0.89,9.61,1.08
				c2.3,0.21,4.93,0.38,7.88,0.5c5.66,8.75,12.09,18.27,19.29,28.55c4.79,6.88,8.95,12.57,12.46,17.09l1.5-16.5
				c0.57-6.25,0.99-11.65,1.26-16.19c0.13-2.7,0.06-4.38-0.22-5.02c-0.14-0.35-0.42-0.61-0.85-0.79c-0.43-0.18-2.35-0.55-5.77-1.11
				l0.32-3.49c3,0.41,6,0.75,8.98,1.02c4.09,0.37,7.81,0.64,11.14,0.8l-0.32,3.49c-3.1-0.09-4.98-0.03-5.64,0.16
				c-0.37,0.11-0.68,0.27-0.92,0.5c-0.24,0.23-0.44,0.53-0.58,0.91c-0.25,0.65-0.56,2.77-0.92,6.37l-1.66,16.62l-1.6,16.75
				c-0.41,4.49-0.72,8.99-0.93,13.5l-0.6,0.53c-3.31-0.92-5.66-1.53-7.03-1.85c-6.41-8.54-14.12-19.23-23.12-32.09
				c-4.55-6.5-8.21-11.96-10.97-16.37l-1.47,16.16c-0.4,4.4-0.81,9.71-1.24,15.93c-0.33,4.58-0.38,7.23-0.13,7.95
				c0.08,0.31,0.27,0.57,0.56,0.76c0.5,0.35,2.47,0.81,5.91,1.37l-0.32,3.49c-4.45-0.6-7.65-0.99-9.58-1.16
				C1080.69,820.16,1077.24,819.95,1071.95,819.66z"/>
		</g>
		<g>
			<path class="st0" d="M639.83,867.89l31.37-7.41l2.92,17.46l-1.8,0.43c-1.62-5.86-3.28-9.53-4.97-11.02
				c-1.94-1.74-4.44-2.25-7.5-1.52l-6.18,1.46c-0.61,0.14-1.03,0.44-1.25,0.88c-0.23,0.44-0.29,1.04-0.19,1.8l2.5,18.37l3.31-0.78
				c1.84-0.44,3.2-1.58,4.08-3.45c0.88-1.86,1.13-4.47,0.76-7.84l1.88-0.44l3.12,22.91l-1.88,0.44c-0.64-3.77-1.6-6.35-2.88-7.72
				c-1.28-1.37-2.86-1.84-4.74-1.4l-3.31,0.78l2.64,19.37c0.16,1.14,0.47,1.9,0.96,2.27c0.48,0.37,1.23,0.44,2.26,0.19l4.02-0.95
				l0.35,2.58l-18.54,4.38l-0.35-2.58l3.96-0.94c0.8-0.19,1.34-0.53,1.62-1.04c0.28-0.5,0.36-1.24,0.23-2.2l-5.5-40.39
				c-0.12-0.91-0.39-1.52-0.8-1.83c-0.41-0.3-1.06-0.35-1.94-0.14l-3.78,0.89L639.83,867.89z"/>
			<path class="st0" d="M674.94,859.6l17.89-3.59l0.3,2.59l-3.59,0.72c-0.96,0.19-1.61,0.53-1.94,1.03
				c-0.34,0.49-0.46,1.16-0.36,2.01l3.34,28.8c0.35,3.01,0.81,5.25,1.39,6.71c0.86,2.16,2.15,3.76,3.89,4.8
				c1.73,1.04,3.88,1.3,6.42,0.79c3.52-0.71,6.07-2.45,7.64-5.22c1.57-2.77,2.12-6.17,1.66-10.2l-2.71-23.42
				c-0.24-2.07-0.53-3.62-0.87-4.64c-0.34-1.03-0.75-1.8-1.23-2.31c-0.48-0.52-1.05-0.85-1.71-1.02c-0.66-0.16-1.73-0.1-3.19,0.2
				l-0.3-2.59l14.64-2.94l0.3,2.59l-1.05,0.21c-1.64,0.33-2.8,1.16-3.46,2.48c-0.67,1.32-0.88,3.09-0.62,5.3l2.9,25.08
				c0.63,5.47-0.07,9.91-2.1,13.31c-2.29,3.83-5.65,6.18-10.09,7.07c-3.84,0.77-6.94,0.66-9.31-0.34c-2.37-0.99-4.2-2.74-5.51-5.23
				c-0.99-1.89-1.66-4.39-2.02-7.5l-3.57-30.8c-0.09-0.78-0.37-1.36-0.83-1.72c-0.46-0.37-1.1-0.47-1.92-0.3l-3.68,0.74
				L674.94,859.6z"/>
			<path class="st0" d="M720.3,850.65l31.56-5.26l2.62,19.22l-1.81,0.3c-2.29-11.18-5.96-16.34-11.02-15.5
				c-1.02,0.17-1.69,0.52-2.03,1.04c-0.33,0.52-0.45,1.32-0.35,2.38l3.93,40.92c0.08,0.83,0.32,1.41,0.73,1.74
				c0.41,0.33,1.03,0.43,1.87,0.29l3.92-0.65l0.25,2.6l-18.06,3.01l-0.25-2.6l4.47-0.74c0.6-0.1,1.03-0.37,1.31-0.82
				c0.28-0.45,0.39-0.99,0.32-1.64l-3.99-41.5c-0.08-0.88-0.35-1.51-0.8-1.89c-0.45-0.38-1.12-0.5-2.01-0.35
				c-2.54,0.42-4.51,2.36-5.9,5.8c-1.15,2.84-1.76,7.12-1.84,12.83l-1.92,0.32L720.3,850.65z"/>
			<path class="st0" d="M779.76,845.42l2.02-4.8l1.92-0.26l1.64,18.68l-1.74,0.24c-1.55-5.59-3.49-9.55-5.83-11.9
				c-2.34-2.34-4.9-3.32-7.68-2.94c-2.32,0.32-4.14,1.49-5.47,3.53c-1.33,2.03-1.89,4.37-1.68,7.01c0.13,1.64,0.53,3.05,1.19,4.21
				c0.66,1.16,1.58,2.05,2.75,2.68s3.35,1.16,6.51,1.61c4.44,0.64,7.58,1.48,9.43,2.51s3.28,2.46,4.29,4.27
				c1.01,1.81,1.62,4.02,1.83,6.61c0.37,4.63-0.51,8.63-2.63,11.99c-2.12,3.37-5.05,5.31-8.79,5.82c-4.02,0.56-7.65-0.67-10.89-3.69
				l-2.6,5.2l-1.9,0.26l-1.58-19.88l1.9-0.26c1.17,5.38,3.17,9.48,5.98,12.3c2.82,2.82,5.83,4,9.05,3.56
				c2.6-0.36,4.64-1.66,6.12-3.91c1.48-2.25,2.11-4.82,1.88-7.71c-0.13-1.64-0.55-3.04-1.27-4.19c-0.71-1.15-1.77-2.06-3.17-2.72
				c-1.4-0.66-4.11-1.32-8.12-1.99c-4.41-0.75-7.46-1.85-9.16-3.3c-2.38-2.06-3.75-5.25-4.09-9.58c-0.36-4.51,0.44-8.36,2.4-11.54
				c1.96-3.18,4.64-5.01,8.05-5.48c1.63-0.22,3.22-0.06,4.75,0.5C776.4,842.8,778.03,843.86,779.76,845.42z"/>
			<path class="st0" d="M808,837.05l1.77-0.19l16.94,45.53c0.68,1.84,1.89,2.67,3.64,2.48l1.21-0.13l0.16,2.61l-15.58,1.69
				l-0.16-2.61l1.24-0.14c1.62-0.18,2.75-0.53,3.39-1.07c0.44-0.37,0.64-0.9,0.59-1.57c-0.02-0.39-0.11-0.8-0.26-1.23l-3.91-10.57
				l-15.44,1.67l-1.42,6.46c-0.37,1.72-0.53,3.07-0.47,4.04c0.07,1.14,0.53,2.07,1.38,2.79c0.85,0.73,2.04,1,3.57,0.84l1.32-0.14
				l0.16,2.61l-14.15,1.53l-0.16-2.61c1.51-0.16,2.68-0.73,3.51-1.69c0.83-0.97,1.53-2.7,2.12-5.22L808,837.05z M807.84,847.04
				l-5.58,23.68l13.79-1.49L807.84,847.04z"/>
			<path class="st0" d="M830.55,835.77l18.14-1.43l0.12,2.61l-4.34,0.34c-0.69,0.05-1.18,0.33-1.49,0.83
				c-0.31,0.5-0.43,1.26-0.39,2.28l1.84,40.65c0.04,0.97,0.28,1.65,0.71,2.02c0.43,0.37,1.27,0.51,2.52,0.41l5.49-0.43
				c2.92-0.23,5.26-1.7,7-4.41c1.74-2.71,2.89-7.27,3.45-13.68l1.85-0.15l0,19.89l-32.58,2.56l-0.12-2.61l3.2-0.25
				c1.09-0.09,1.85-0.42,2.26-1c0.42-0.58,0.6-1.48,0.54-2.68l-1.82-40.23c-0.04-0.86-0.25-1.5-0.64-1.91
				c-0.39-0.41-0.95-0.59-1.67-0.53l-3.97,0.31L830.55,835.77z"/>
			<path class="st0" d="M895.87,830.48l1.77-0.07l15.15,46.61c0.61,1.88,1.79,2.79,3.54,2.72l1.22-0.05l0.06,2.62l-15.62,0.64
				l-0.06-2.62l1.24-0.05c1.62-0.07,2.77-0.34,3.43-0.84c0.45-0.34,0.67-0.85,0.65-1.53c-0.01-0.4-0.08-0.81-0.21-1.25l-3.5-10.82
				l-15.49,0.63l-1.67,6.35c-0.44,1.69-0.64,3.03-0.62,4.01c0.03,1.14,0.45,2.1,1.27,2.88c0.82,0.78,2,1.14,3.54,1.08l1.32-0.05
				l0.06,2.62l-14.19,0.58l-0.06-2.62c1.52-0.06,2.71-0.55,3.57-1.45c0.86-0.91,1.63-2.6,2.32-5.07L895.87,830.48z M895.33,840.45
				l-6.49,23.27l13.83-0.56L895.33,840.45z"/>
			<path class="st0" d="M941.85,834.34l2.35-4.53l1.93-0.03l0.3,18.8l-1.75,0.02c-1.14-5.75-2.79-9.94-4.95-12.57
				c-2.17-2.62-4.64-3.92-7.43-3.88c-2.33,0.03-4.23,0.97-5.7,2.83c-1.47,1.86-2.19,4.12-2.18,6.77c0.01,1.65,0.31,3.1,0.88,4.34
				c0.57,1.24,1.42,2.24,2.55,3c1.13,0.77,3.25,1.57,6.36,2.41c4.37,1.19,7.44,2.42,9.21,3.68c1.77,1.26,3.09,2.85,3.97,4.78
				c0.88,1.93,1.33,4.2,1.35,6.8c0.03,4.65-1.12,8.52-3.48,11.61c-2.35,3.09-5.41,4.66-9.17,4.71c-4.04,0.05-7.57-1.62-10.58-5.03
				l-2.96,4.85l-1.91,0.02l-0.15-19.99l1.91-0.02c0.78,5.5,2.47,9.83,5.08,12.98c2.6,3.15,5.52,4.71,8.75,4.67
				c2.61-0.03,4.74-1.08,6.37-3.14c1.64-2.06,2.44-4.54,2.42-7.45c-0.01-1.65-0.33-3.1-0.96-4.33c-0.63-1.23-1.62-2.27-2.96-3.1
				c-1.35-0.83-4-1.83-7.94-2.99c-4.34-1.29-7.3-2.77-8.88-4.42c-2.23-2.34-3.35-5.69-3.39-10.04c-0.03-4.54,1.04-8.27,3.22-11.19
				c2.18-2.92,4.98-4.41,8.41-4.45c1.64-0.02,3.21,0.34,4.7,1.09S940.24,832.57,941.85,834.34z"/>
			<path class="st0" d="M976.56,834.54l2.42-4.47l1.93,0.03l0.02,18.81l-1.75-0.02c-1.05-5.78-2.64-10.01-4.77-12.69
				c-2.13-2.68-4.58-4.04-7.37-4.07c-2.33-0.03-4.25,0.86-5.74,2.69c-1.5,1.82-2.26,4.06-2.28,6.71c-0.01,1.65,0.26,3.11,0.81,4.36
				c0.56,1.25,1.39,2.28,2.51,3.07c1.11,0.8,3.22,1.65,6.33,2.57c4.35,1.3,7.4,2.61,9.15,3.91c1.75,1.3,3.05,2.93,3.9,4.88
				c0.85,1.95,1.27,4.23,1.25,6.84c-0.03,4.65-1.25,8.49-3.65,11.52c-2.4,3.03-5.48,4.52-9.24,4.47c-4.04-0.05-7.55-1.82-10.51-5.3
				l-3.03,4.78l-1.91-0.03l0.15-19.99l1.91,0.03c0.7,5.52,2.33,9.89,4.88,13.11c2.55,3.22,5.45,4.85,8.68,4.89
				c2.61,0.03,4.75-0.96,6.42-2.97c1.67-2.02,2.51-4.47,2.53-7.38c0.01-1.65-0.29-3.1-0.9-4.36c-0.61-1.25-1.58-2.31-2.92-3.18
				c-1.34-0.87-3.97-1.93-7.9-3.19c-4.32-1.41-7.26-2.96-8.81-4.65c-2.19-2.4-3.27-5.78-3.24-10.13c0.03-4.53,1.16-8.24,3.38-11.1
				c2.22-2.87,5.04-4.28,8.47-4.24c1.64,0.02,3.2,0.43,4.68,1.21C973.45,831.43,974.98,832.73,976.56,834.54z"/>
			<path class="st0" d="M1007.14,830.5c3.3,0.14,6.37,1.41,9.2,3.83c2.83,2.41,5.01,5.7,6.55,9.87c1.53,4.17,2.24,8.83,2.11,13.97
				c-0.12,5.14-1.06,9.74-2.8,13.81c-1.74,4.07-4.07,7.2-7,9.39c-2.92,2.19-5.99,3.22-9.21,3.09c-3.14-0.13-6.06-1.39-8.76-3.77
				c-2.7-2.38-4.83-5.72-6.4-10.01c-1.57-4.29-2.29-9-2.16-14.14c0.12-5.07,1.04-9.61,2.75-13.62c1.71-4.01,4-7.12,6.86-9.31
				C1001.15,831.4,1004.1,830.37,1007.14,830.5z M1007.49,833.2c-3.44-0.14-6.28,1.62-8.5,5.3c-2.23,3.68-3.44,9.77-3.65,18.28
				c-0.22,9.23,0.72,15.66,2.82,19.28c2.1,3.63,4.77,5.51,8,5.64c2.26,0.1,4.26-0.62,6.02-2.16c1.75-1.53,3.18-4.02,4.27-7.46
				c1.1-3.44,1.72-8,1.86-13.68c0.15-6.18-0.21-11.03-1.08-14.55c-0.87-3.52-2.17-6.15-3.89-7.9
				C1011.61,834.21,1009.67,833.29,1007.49,833.2z"/>
			<path class="st0" d="M1060.4,838.84l2.04-4.85l1.67,0.12l-0.19,20.78l-1.77-0.13c-0.92-5.91-2.2-10.32-3.85-13.21
				c-2.04-3.62-4.58-5.54-7.61-5.76c-3.28-0.24-6.03,1.49-8.26,5.19c-2.23,3.7-3.53,10.16-3.92,19.35
				c-0.33,7.73,0.61,13.72,2.8,17.96c1.86,3.58,4.61,5.51,8.25,5.78c3.17,0.23,5.89-0.91,8.16-3.44c2.26-2.52,3.84-6.47,4.72-11.83
				l1.88,0.14c-0.81,6.09-2.6,10.69-5.39,13.79c-2.78,3.1-6.19,4.51-10.21,4.21c-3.26-0.24-6.21-1.54-8.84-3.9
				c-2.63-2.36-4.68-5.62-6.14-9.8c-1.46-4.17-2.09-8.67-1.88-13.51c0.22-5.13,1.26-9.89,3.14-14.27c1.87-4.38,4.17-7.61,6.9-9.68
				c2.72-2.07,5.6-3,8.63-2.77c1.69,0.12,3.32,0.63,4.87,1.51C1056.93,835.41,1058.6,836.85,1060.4,838.84z"/>
			<path class="st0" d="M1070.91,835.75l18.02,1.76l-0.15,2.61l-3.09-0.3c-1.37-0.13-2.25,0.01-2.64,0.43
				c-0.39,0.42-0.62,1.36-0.7,2.82l-2.19,38.97c-0.09,1.55,0.02,2.54,0.31,2.97c0.39,0.58,1.14,0.92,2.25,1.03l3.46,0.34l-0.15,2.61
				l-18.02-1.76l0.15-2.61l3.41,0.33c1.2,0.12,1.99-0.04,2.36-0.47c0.38-0.43,0.61-1.42,0.7-2.98l2.19-38.97
				c0.08-1.48-0.02-2.42-0.32-2.8c-0.46-0.58-1.36-0.94-2.68-1.06l-3.06-0.3L1070.91,835.75z"/>
			<path class="st0" d="M1110.45,838.88l1.77,0.22l10.69,48.71c0.43,1.97,1.51,3.06,3.26,3.27l1.21,0.15l-0.18,2.61l-15.56-1.9
				l0.18-2.61l1.24,0.15c1.62,0.2,2.78,0.11,3.48-0.28c0.48-0.27,0.74-0.74,0.79-1.41c0.03-0.39,0-0.82-0.1-1.27l-2.46-11.3
				l-15.43-1.88l-2.25,6.03c-0.59,1.61-0.92,2.9-0.99,3.87c-0.08,1.14,0.25,2.16,1,3.06c0.74,0.91,1.88,1.45,3.41,1.64l1.32,0.16
				l-0.18,2.61l-14.14-1.72l0.18-2.61c1.51,0.18,2.74-0.1,3.68-0.87c0.94-0.76,1.86-2.31,2.77-4.65L1110.45,838.88z M1108.99,848.69
				l-8.61,22.04l13.78,1.68L1108.99,848.69z"/>
			<path class="st0" d="M1130.53,842.47l31.61,4.74l-0.91,19.49l-1.82-0.27c-0.21-11.57-2.85-17.74-7.91-18.5
				c-1.02-0.15-1.74-0.03-2.16,0.38c-0.42,0.41-0.67,1.14-0.77,2.2l-3.54,40.98c-0.07,0.83,0.06,1.47,0.39,1.92
				c0.33,0.45,0.92,0.74,1.77,0.86l3.92,0.59l-0.22,2.6l-18.08-2.71l0.22-2.6l4.47,0.67c0.6,0.09,1.07-0.04,1.42-0.38
				c0.35-0.34,0.55-0.84,0.61-1.49l3.59-41.57c0.08-0.88-0.07-1.57-0.43-2.09c-0.36-0.51-0.99-0.83-1.89-0.97
				c-2.54-0.38-4.81,0.88-6.78,3.79c-1.63,2.4-2.99,6.37-4.09,11.89l-1.92-0.29L1130.53,842.47z"/>
			<path class="st0" d="M1166.64,848.02l17.91,3.12l-0.26,2.59l-3.07-0.54c-1.37-0.24-2.25-0.16-2.65,0.22
				c-0.4,0.39-0.68,1.31-0.83,2.76l-3.89,38.74c-0.15,1.55-0.09,2.54,0.18,2.99c0.37,0.6,1.1,1,2.21,1.19l3.44,0.6l-0.26,2.59
				l-17.91-3.12l0.26-2.59l3.39,0.59c1.19,0.21,1.98,0.11,2.38-0.29c0.4-0.4,0.67-1.37,0.83-2.92l3.89-38.74
				c0.15-1.48,0.08-2.41-0.2-2.81c-0.44-0.62-1.31-1.04-2.63-1.27l-3.05-0.53L1166.64,848.02z"/>
			<path class="st0" d="M1207.8,854.53c3.26,0.66,6.19,2.41,8.78,5.25c2.59,2.84,4.46,6.45,5.6,10.84c1.14,4.38,1.42,9.12,0.83,14.2
				c-0.59,5.08-1.94,9.51-4.03,13.27c-2.1,3.77-4.7,6.51-7.8,8.22c-3.1,1.71-6.24,2.25-9.42,1.61c-3.11-0.63-5.89-2.33-8.36-5.13
				c-2.46-2.79-4.28-6.44-5.44-10.95s-1.45-9.3-0.86-14.38c0.58-5.01,1.91-9.37,3.97-13.09c2.07-3.71,4.62-6.43,7.66-8.16
				C1201.77,854.49,1204.79,853.93,1207.8,854.53z M1207.91,857.27c-3.4-0.69-6.38,0.62-8.92,3.92c-2.55,3.3-4.31,9.16-5.29,17.57
				c-1.06,9.13-0.71,15.66,1.05,19.59c1.76,3.93,4.23,6.22,7.43,6.86c2.23,0.45,4.29,0.05,6.17-1.19c1.88-1.25,3.52-3.49,4.92-6.74
				c1.4-3.25,2.43-7.68,3.09-13.29c0.71-6.12,0.79-10.99,0.25-14.62c-0.54-3.63-1.59-6.45-3.15-8.45
				C1211.9,858.93,1210.05,857.71,1207.91,857.27z"/>
			<path class="st0" d="M1231.92,860.57l9.2,2.21l17.73,45.46l3.99-28.87c0.4-2.91,0.2-5.18-0.62-6.82c-0.74-1.5-2.02-2.5-3.84-2.98
				l0.36-2.58l13.5,3.24l-0.36,2.58c-1.38-0.33-2.44-0.33-3.19,0.01c-0.75,0.34-1.47,1.11-2.16,2.32c-0.69,1.21-1.14,2.6-1.36,4.18
				l-5.58,40.33l-2.45-0.59l-18.32-47.3l-4.24,30.64c-0.38,2.77-0.14,4.97,0.73,6.58c0.87,1.62,2.42,2.72,4.63,3.29l-0.36,2.58
				l-14.7-3.53l0.36-2.57c1.85,0.35,3.42-0.1,4.71-1.33c1.28-1.24,2.08-2.94,2.38-5.12l4.75-34.38l-0.37-0.77
				c-0.7-1.45-1.21-2.34-1.54-2.66c-0.46-0.44-1.09-0.76-1.88-0.95l-1.74-0.42L1231.92,860.57z"/>
		</g>
	</g>
	<g>
		<path class="st0" d="M866.95,958.17c-0.92,1.47-1.85,3.55-2.77,6.24l-1.39-0.63l0.63-1.89c0.41-1.23,0.54-2.13,0.41-2.7
			c-0.14-0.57-0.72-1.37-1.75-2.41c-1.03-1.04-2.2-1.86-3.52-2.46c-2.16-0.98-4.06-1.11-5.72-0.4c-1.66,0.71-2.82,2.07-3.48,4.06
			c-0.42,1.26-0.53,2.45-0.32,3.59c0.2,1.13,0.67,2.1,1.39,2.89c0.72,0.79,2.42,1.97,5.09,3.54c2.67,1.58,4.41,2.85,5.21,3.81
			c0.8,0.97,1.31,2.16,1.51,3.57c0.2,1.42,0.04,2.91-0.48,4.49c-1.05,3.17-3.09,5.38-6.11,6.63c-3.02,1.26-6.42,1.03-10.19-0.69
			c-1.29-0.59-2.54-1.33-3.76-2.24c-1.21-0.9-2.38-1.96-3.52-3.16c0.87-1.78,1.79-4.15,2.76-7.12l1.37,0.63l-0.39,1.18
			c-0.51,1.53-0.76,2.5-0.74,2.93c0.01,0.42,0.2,0.95,0.56,1.59c0.54,0.95,1.26,1.82,2.18,2.61c0.92,0.79,1.97,1.45,3.15,1.99
			c2.54,1.16,4.74,1.35,6.6,0.58c1.85-0.77,3.14-2.24,3.86-4.39c0.42-1.26,0.54-2.43,0.36-3.52c-0.18-1.09-0.62-2.04-1.33-2.85
			c-0.71-0.81-2.17-1.85-4.38-3.11c-2.95-1.67-4.88-3.03-5.78-4.09s-1.46-2.35-1.67-3.85c-0.21-1.5-0.02-3.16,0.58-4.97
			c1.02-3.07,2.81-5.15,5.35-6.24c2.55-1.09,5.5-0.87,8.85,0.66c1.35,0.61,2.64,1.4,3.88,2.35
			C864.63,955.73,865.82,956.86,866.95,958.17z"/>
		<path class="st0" d="M861.47,990.54l1.3,0.49c1.28,0.48,2.15,0.41,2.6-0.22s1.53-4.05,3.23-10.26l2.24-8.18
			c1.76-6.44,2.62-10.03,2.58-10.77c-0.04-0.74-0.61-1.32-1.71-1.73l-1.67-0.63l0.42-1.52c2.26,0.97,4.5,1.87,6.74,2.71
			c1.86,0.7,3.57,1.27,5.11,1.73l-0.42,1.52l-1.6-0.6c-0.98-0.37-1.64-0.46-1.96-0.28c-0.32,0.18-0.66,0.82-1,1.91
			c-0.54,1.7-1.42,4.75-2.62,9.16l-2.28,8.33c-1.71,6.26-2.54,9.75-2.48,10.48c0.06,0.72,0.73,1.32,2,1.8l1.37,0.51l-0.42,1.52
			c-1.66-0.75-3.5-1.5-5.5-2.24c-2.33-0.87-4.45-1.6-6.35-2.19L861.47,990.54z"/>
		<path class="st0" d="M888.27,970.25l-3.38,17.07c-0.77,3.89-1.24,6.61-1.42,8.18c-0.13,1.2-0.11,1.95,0.08,2.27
			c0.18,0.32,0.82,0.69,1.92,1.1l1.33,0.49l-0.31,1.56c-1.51-0.53-2.89-0.97-4.13-1.3c-0.86-0.23-2.85-0.71-5.96-1.43l0.31-1.56
			l1.52,0.41c0.92,0.25,1.54,0.26,1.88,0.04c0.34-0.22,0.63-0.76,0.87-1.61c0.51-1.77,1.08-4.21,1.69-7.32l2.43-12.27
			c0.46-2.31,0.89-4.59,1.29-6.86c0.16-0.96,0.18-1.65,0.06-2.05c-0.12-0.41-0.34-0.8-0.65-1.18s-0.8-0.66-1.46-0.84l-1.31-0.35
			l0.31-1.56c1.76,0.6,3.12,1.03,4.06,1.28c1.01,0.27,2.14,0.52,3.37,0.73c1,2.37,1.93,4.66,2.79,6.88
			c0.86,2.22,1.76,4.46,2.71,6.73l5.17,12.32c1.87,4.43,3.24,7.52,4.1,9.28l3.14-15.85c1.31-6.64,1.93-10.29,1.84-10.96
			c-0.08-0.67-0.82-1.28-2.21-1.83l-1.55-0.6l0.31-1.56c2.24,0.73,3.99,1.26,5.25,1.6c1.31,0.35,3.01,0.75,5.1,1.2l-0.31,1.56
			l-1.63-0.44c-1.31-0.35-2.16-0.05-2.56,0.92c-0.26,0.64-1.04,4.23-2.33,10.77l-2.2,11.14c-0.59,3-1.19,6.61-1.79,10.84
			c-1.85-0.86-2.91-1.42-3.19-1.66c-0.28-0.24-0.52-0.58-0.73-1.02c-1.16-2.45-2.36-5.14-3.59-8.08L888.27,970.25z"/>
		<path class="st0" d="M943.91,985.04l0.28-4.5c-1.18-1.17-2.44-2.09-3.79-2.77c-1.35-0.68-2.78-1.13-4.31-1.34
			c-3.87-0.54-7.12,0.4-9.73,2.83c-2.61,2.43-4.15,5.95-4.63,10.56c-0.33,3.24-0.03,6.21,0.89,8.91c0.92,2.7,2.4,4.94,4.43,6.72
			c2.03,1.78,4.26,2.84,6.68,3.18c1.92,0.27,3.85,0.27,5.78,0.02c1.45-0.19,2.94-0.8,4.49-1.82l0.4,0.57
			c-0.38,0.73-0.74,1.47-1.08,2.22c-1.78,0.74-3.54,1.24-5.29,1.49c-1.75,0.26-3.49,0.26-5.21,0.02c-3.53-0.49-6.55-1.72-9.06-3.69
			c-2.51-1.97-4.34-4.46-5.49-7.47c-1.15-3.01-1.54-6.29-1.18-9.83c0.36-3.54,1.41-6.61,3.14-9.2c1.73-2.59,4-4.47,6.81-5.64
			c2.8-1.17,6.14-1.48,10-0.94c2.02,0.28,4.35,1,6.98,2.15c1.31,0.56,2.38,0.99,3.21,1.29c-0.83,1.7-1.46,4.19-1.9,7.44
			L943.91,985.04z"/>
		<path class="st0" d="M956.78,995.38l-0.14,6.22l-0.06,3.58c-0.05,2.23-0.07,3.87-0.05,4.9c2.11,0.25,4.37,0.42,6.79,0.49
			c1.62,0.05,2.98,0.01,4.09-0.13c0.71-0.08,1.47-0.27,2.27-0.59c0.4-1.47,0.81-3.32,1.24-5.54l1.43,0.05
			c-0.48,3.7-0.73,6.17-0.76,7.4l0.02,1.15c-1.67,0.12-3.3,0.15-4.9,0.1l-3.4-0.18c-3.75-0.24-6.51-0.38-8.27-0.44
			c-1.69-0.05-3.94-0.07-6.74-0.04l0.04-1.6l0.67,0.02c1.26,0.04,2.05-0.08,2.38-0.36c0.33-0.28,0.56-0.94,0.7-2.01
			c0.13-1.06,0.24-3.41,0.33-7.04l0.32-13.91c0.05-2.28,0.05-4.15-0.01-5.6c-0.06-1.46-0.14-2.32-0.24-2.61
			c-0.1-0.28-0.25-0.5-0.45-0.66c-0.2-0.16-0.82-0.31-1.85-0.46l-1.66-0.26l0.04-1.6l2.34,0.08l2.29,0.16
			c1.28,0.1,2.26,0.16,2.92,0.18l8.32,0.11l3.94,0.1c1.34,0.03,2.7,0.13,4.07,0.31c-0.6,1.99-0.96,4.59-1.09,7.8l-1.47-0.05
			c0.04-1.86,0-3.41-0.13-4.65c-1.69-0.8-3.77-1.24-6.26-1.31c-1.98-0.06-4.05-0.03-6.23,0.11c-0.02,1.58-0.07,3.17-0.15,4.75
			l-0.13,3.89l-0.12,5.14c1.43,0.16,2.69,0.26,3.79,0.3c3.44,0.11,5.39,0.03,5.85-0.23c0.46-0.26,0.71-1.12,0.74-2.58l0.04-1.65
			l1.47,0.05c-0.16,2.55-0.26,4.58-0.29,6.1c-0.04,1.61-0.03,3.5,0.02,5.68l-1.47-0.05l0.03-1.47c0.04-1.62-0.21-2.62-0.74-3
			c-0.53-0.38-2.44-0.62-5.72-0.73C959.34,995.28,958.09,995.3,956.78,995.38z"/>
		<path class="st0" d="M987.71,1012.48l-0.1-1.42l6.82-9.83c2.59-3.71,4.29-6.69,5.09-8.93c0.8-2.24,1.14-4.28,1.01-6.11
			c-0.16-2.27-0.85-4.04-2.07-5.29c-1.21-1.25-2.74-1.79-4.59-1.61c-1.21,0.12-2.29,0.48-3.23,1.08c-0.68,0.44-1.15,0.95-1.41,1.54
			c-0.26,0.59-0.6,2.19-1,4.83l-1.32,0.13c0.21-3.33,0.28-5.72,0.22-7.19c0.98-1.44,2.08-2.52,3.29-3.25
			c1.21-0.73,2.61-1.17,4.19-1.33c2.79-0.27,5.08,0.43,6.86,2.11c1.78,1.68,2.78,4.02,3,7.02c0.19,2.59-0.37,5.21-1.69,7.85
			c-1.31,2.64-3.59,6.03-6.83,10.16l-3.83,5.44l7.89-0.78c3.35-0.33,5.85-0.69,7.5-1.1l0.23,0.21c-0.06,0.97-0.08,1.66-0.05,2.07
			c0.02,0.32,0.14,1.07,0.36,2.25l-0.21,0.17c-2.86,0.16-6.03,0.42-9.52,0.76C994.68,1011.61,991.14,1012.02,987.71,1012.48z"/>
		<path class="st0" d="M1009.3,992.16c-0.85-6.43-0.56-11.26,0.89-14.5c1.45-3.24,3.71-5.14,6.78-5.69
			c1.88-0.34,3.56-0.09,5.04,0.77c1.47,0.85,2.72,2.33,3.76,4.42c1.03,2.1,1.83,5.27,2.39,9.53c0.98,7.41,0.77,12.81-0.66,16.2
			c-1.42,3.39-3.65,5.36-6.7,5.91c-2.1,0.38-3.94-0.02-5.54-1.21c-1.59-1.19-2.89-3.05-3.9-5.57
			C1010.61,1000.09,1009.92,996.8,1009.3,992.16z M1012.94,990.81c0.91,6.83,2.14,11.4,3.69,13.72c1.25,1.89,2.78,2.68,4.61,2.34
			c1.74-0.32,2.94-1.51,3.58-3.57c0.81-2.59,0.79-7.08-0.05-13.46c-0.9-6.78-2.11-11.3-3.64-13.55c-1.29-1.92-2.86-2.71-4.7-2.38
			c-1.73,0.31-2.95,1.6-3.68,3.86C1012.02,980.04,1012.09,984.38,1012.94,990.81z"/>
		<path class="st0" d="M1037.13,1004.96l-0.31-1.61l1.63-0.51c1.89-0.57,2.97-1.19,3.23-1.85c0.26-0.66,0-2.97-0.79-6.94
			l-2.53-13.75c-0.9-4.6-1.43-7.11-1.61-7.55c-0.1-0.27-0.25-0.38-0.46-0.32c-0.14,0.04-0.44,0.26-0.9,0.66
			c-2.15,1.88-3.62,3.23-4.39,4.06c-0.54,0.59-0.85,0.9-0.95,0.93c-0.18,0.05-0.32-0.06-0.4-0.33l-0.62-2.36
			c4.12-2.73,7.56-5.48,10.31-8.24l0.68,0.16l0.46,2.81l2.57,14.31l1.75,9.78c0.46,2.34,0.84,3.86,1.16,4.58
			c0.32,0.71,0.69,1.15,1.11,1.3c0.42,0.16,1.35,0.06,2.78-0.29l1.94-0.44l0.31,1.61c-3.56,0.83-6.08,1.44-7.56,1.84
			C1042.85,1003.25,1040.37,1003.97,1037.13,1004.96z"/>
		<path class="st0" d="M1063.81,958.76l1.72,0.26l0.11,0.41c-2.26,1.64-4.08,3.57-5.45,5.81c-1.37,2.23-2.27,4.6-2.71,7.08
			c-0.44,2.49-0.39,5.25,0.14,8.29l1.82-2.83c0.59-1,1.16-1.73,1.74-2.21c0.57-0.47,1.32-0.88,2.25-1.21
			c2.35-0.84,4.4-0.67,6.14,0.49c1.74,1.16,3,3.23,3.78,6.2c0.87,3.36,0.68,6.55-0.59,9.57c-1.27,3.02-3.22,5-5.86,5.94
			c-2.6,0.92-5.02,0.52-7.27-1.2c-2.25-1.73-3.93-4.75-5.05-9.06c-0.93-3.57-1.2-7.02-0.8-10.34s1.48-6.5,3.24-9.55
			C1058.77,963.36,1061.04,960.81,1063.81,958.76z M1062.56,977.81c-1.07,0.38-1.98,1.04-2.74,1.98c-0.76,0.94-1.23,1.95-1.4,3.02
			c-0.13,0.79,0.06,2.13,0.55,4.02c0.84,3.22,2.06,5.51,3.67,6.88c1.36,1.16,2.83,1.46,4.42,0.89c1.55-0.55,2.61-1.69,3.19-3.41
			c0.67-2.01,0.64-4.42-0.1-7.25c-0.69-2.64-1.71-4.46-3.08-5.48C1065.71,977.44,1064.21,977.22,1062.56,977.81z"/>
	</g>
</g>
</svg>
